<svg width="504" height="253" viewBox="0 0 504 253" fill="none" xmlns="http://www.w3.org/2000/svg">
<rect x="0.65" y="0.65" width="502.7" height="251.7" stroke="#00D9FF" stroke-width="1.3"/>
<line x1="1.00129" y1="62.35" x2="504.001" y2="63.35" stroke="#00D9FF" stroke-width="1.3"/>
<line x1="1" y1="235.35" x2="77" y2="235.35" stroke="#00D9FF" stroke-width="1.3"/>
<line x1="185" y1="235.35" x2="293" y2="235.35" stroke="#00D9FF" stroke-width="1.3"/>
<line x1="1.00129" y1="36.35" x2="504.001" y2="37.35" stroke="#00D9FF" stroke-width="1.3"/>
<line x1="184.35" y1="252" x2="184.35" y2="37" stroke="#00D9FF" stroke-width="1.3"/>
<line x1="292.35" y1="252" x2="292.35" y2="37" stroke="#00D9FF" stroke-width="1.3"/>
<line x1="232.35" y1="235.997" x2="233.35" y2="37.9967" stroke="#00D9FF" stroke-width="1.3"/>
<line x1="130.35" y1="252" x2="130.35" y2="37" stroke="#00D9FF" stroke-width="1.3"/>
<line x1="77.35" y1="252" x2="77.35" y2="37" stroke="#00D9FF" stroke-width="1.3"/>
<line x1="37.35" y1="253" x2="37.35" y2="37" stroke="#00D9FF" stroke-width="1.3"/>
<path d="M12.6857 41.9091V47H11.8654L9.46662 43.5323H9.42436V47H8.50213V41.9091H9.32741L11.7237 45.3793H11.7685V41.9091H12.6857ZM15.3163 47.0746C14.9434 47.0746 14.6203 46.9925 14.3469 46.8285C14.0734 46.6644 13.8613 46.4349 13.7105 46.1399C13.5613 45.8449 13.4868 45.5002 13.4868 45.1058C13.4868 44.7114 13.5613 44.3659 13.7105 44.0692C13.8613 43.7726 14.0734 43.5423 14.3469 43.3782C14.6203 43.2141 14.9434 43.1321 15.3163 43.1321C15.6892 43.1321 16.0123 43.2141 16.2858 43.3782C16.5592 43.5423 16.7705 43.7726 16.9197 44.0692C17.0705 44.3659 17.1459 44.7114 17.1459 45.1058C17.1459 45.5002 17.0705 45.8449 16.9197 46.1399C16.7705 46.4349 16.5592 46.6644 16.2858 46.8285C16.0123 46.9925 15.6892 47.0746 15.3163 47.0746ZM15.3213 46.3537C15.5235 46.3537 15.6925 46.2982 15.8284 46.1871C15.9643 46.0745 16.0654 45.9237 16.1317 45.7347C16.1996 45.5458 16.2336 45.3353 16.2336 45.1033C16.2336 44.8697 16.1996 44.6584 16.1317 44.4695C16.0654 44.2789 15.9643 44.1272 15.8284 44.0146C15.6925 43.9019 15.5235 43.8455 15.3213 43.8455C15.1141 43.8455 14.9418 43.9019 14.8042 44.0146C14.6684 44.1272 14.5664 44.2789 14.4985 44.4695C14.4322 44.6584 14.3991 44.8697 14.3991 45.1033C14.3991 45.3353 14.4322 45.5458 14.4985 45.7347C14.5664 45.9237 14.6684 46.0745 14.8042 46.1871C14.9418 46.2982 15.1141 46.3537 15.3213 46.3537ZM18.464 47.0547C18.3132 47.0547 18.1839 47.0017 18.0762 46.8956C17.9685 46.7895 17.9154 46.6603 17.9171 46.5078C17.9154 46.3587 17.9685 46.2311 18.0762 46.125C18.1839 46.0189 18.3132 45.9659 18.464 45.9659C18.6098 45.9659 18.7366 46.0189 18.8443 46.125C18.9537 46.2311 19.0092 46.3587 19.0108 46.5078C19.0092 46.6089 18.9827 46.7009 18.9313 46.7837C18.8816 46.8666 18.8153 46.9329 18.7324 46.9826C18.6512 47.0307 18.5617 47.0547 18.464 47.0547ZM23.1845 47.0746C22.8116 47.0746 22.4885 46.9925 22.215 46.8285C21.9416 46.6644 21.7295 46.4349 21.5787 46.1399C21.4295 45.8449 21.3549 45.5002 21.3549 45.1058C21.3549 44.7114 21.4295 44.3659 21.5787 44.0692C21.7295 43.7726 21.9416 43.5423 22.215 43.3782C22.4885 43.2141 22.8116 43.1321 23.1845 43.1321C23.5574 43.1321 23.8805 43.2141 24.1539 43.3782C24.4274 43.5423 24.6387 43.7726 24.7878 44.0692C24.9386 44.3659 25.014 44.7114 25.014 45.1058C25.014 45.5002 24.9386 45.8449 24.7878 46.1399C24.6387 46.4349 24.4274 46.6644 24.1539 46.8285C23.8805 46.9925 23.5574 47.0746 23.1845 47.0746ZM23.1895 46.3537C23.3916 46.3537 23.5607 46.2982 23.6966 46.1871C23.8324 46.0745 23.9335 45.9237 23.9998 45.7347C24.0678 45.5458 24.1017 45.3353 24.1017 45.1033C24.1017 44.8697 24.0678 44.6584 23.9998 44.4695C23.9335 44.2789 23.8324 44.1272 23.6966 44.0146C23.5607 43.9019 23.3916 43.8455 23.1895 43.8455C22.9823 43.8455 22.81 43.9019 22.6724 44.0146C22.5365 44.1272 22.4346 44.2789 22.3667 44.4695C22.3004 44.6584 22.2672 44.8697 22.2672 45.1033C22.2672 45.3353 22.3004 45.5458 22.3667 45.7347C22.4346 45.9237 22.5365 46.0745 22.6724 46.1871C22.81 46.2982 22.9823 46.3537 23.1895 46.3537ZM27.7117 43.1818V43.8778H25.4546V43.1818H27.7117ZM26.0189 47V42.8214C26.0189 42.5645 26.0719 42.3507 26.178 42.18C26.2857 42.0094 26.4299 41.8817 26.6105 41.7972C26.7912 41.7127 26.9917 41.6705 27.2121 41.6705C27.3679 41.6705 27.5062 41.6829 27.6272 41.7077C27.7482 41.7326 27.8377 41.755 27.8957 41.7749L27.7167 42.4709C27.6786 42.4593 27.6305 42.4477 27.5725 42.4361C27.5145 42.4228 27.4499 42.4162 27.3786 42.4162C27.2113 42.4162 27.0928 42.4568 27.0232 42.538C26.9552 42.6175 26.9213 42.7319 26.9213 42.881V47H26.0189ZM8.50213 55V49.9091H10.4112C10.8023 49.9091 11.1304 49.982 11.3956 50.1278C11.6624 50.2737 11.8638 50.4742 11.9996 50.7294C12.1372 50.983 12.206 51.2713 12.206 51.5945C12.206 51.9209 12.1372 52.2109 11.9996 52.4645C11.8621 52.718 11.6591 52.9177 11.3906 53.0636C11.1222 53.2077 10.7915 53.2798 10.3988 53.2798H9.13352V52.5217H10.2745C10.5032 52.5217 10.6905 52.4819 10.8363 52.4023C10.9821 52.3228 11.0898 52.2134 11.1594 52.0742C11.2307 51.935 11.2663 51.7751 11.2663 51.5945C11.2663 51.4138 11.2307 51.2547 11.1594 51.1172C11.0898 50.9796 10.9813 50.8728 10.8338 50.7965C10.688 50.7186 10.4999 50.6797 10.2695 50.6797H9.42436V55H8.50213ZM12.9672 55V51.1818H13.8671V55H12.9672ZM13.4197 50.6399C13.2771 50.6399 13.1545 50.5927 13.0518 50.4982C12.949 50.4021 12.8976 50.2869 12.8976 50.1527C12.8976 50.0168 12.949 49.9016 13.0518 49.8072C13.1545 49.7111 13.2771 49.663 13.4197 49.663C13.5638 49.663 13.6865 49.7111 13.7876 49.8072C13.8903 49.9016 13.9417 50.0168 13.9417 50.1527C13.9417 50.2869 13.8903 50.4021 13.7876 50.4982C13.6865 50.5927 13.5638 50.6399 13.4197 50.6399ZM16.4828 55.0746C16.1 55.0746 15.7694 54.995 15.4909 54.8359C15.2142 54.6752 15.0012 54.4482 14.8521 54.1548C14.7029 53.8598 14.6284 53.5127 14.6284 53.1133C14.6284 52.7205 14.7029 52.3758 14.8521 52.0792C15.0029 51.7809 15.2134 51.5489 15.4835 51.3832C15.7536 51.2158 16.071 51.1321 16.4355 51.1321C16.6709 51.1321 16.8929 51.1702 17.1017 51.2464C17.3122 51.321 17.4978 51.437 17.6586 51.5945C17.821 51.7519 17.9486 51.9524 18.0414 52.196C18.1342 52.438 18.1806 52.7263 18.1806 53.0611V53.337H15.051V52.7305H17.318C17.3163 52.5581 17.2791 52.4048 17.2061 52.2706C17.1332 52.1347 17.0313 52.0278 16.9004 51.9499C16.7711 51.872 16.6203 51.8331 16.448 51.8331C16.264 51.8331 16.1025 51.8778 15.9632 51.9673C15.824 52.0552 15.7155 52.1712 15.6376 52.3153C15.5614 52.4579 15.5224 52.6145 15.5208 52.7852V53.3146C15.5208 53.5367 15.5614 53.7273 15.6426 53.8864C15.7238 54.0438 15.8373 54.1648 15.9831 54.2493C16.129 54.3321 16.2997 54.3736 16.4952 54.3736C16.6261 54.3736 16.7446 54.3554 16.8507 54.3189C16.9567 54.2808 17.0487 54.2253 17.1266 54.1523C17.2045 54.0794 17.2633 53.9891 17.3031 53.8814L18.1433 53.9759C18.0903 54.1979 17.9892 54.3918 17.84 54.5575C17.6925 54.7216 17.5036 54.8492 17.2733 54.9403C17.0429 55.0298 16.7794 55.0746 16.4828 55.0746ZM20.6073 55.0746C20.2262 55.0746 19.8989 54.9909 19.6254 54.8235C19.3537 54.6561 19.144 54.425 18.9965 54.13C18.8507 53.8333 18.7778 53.492 18.7778 53.1058C18.7778 52.718 18.8524 52.3758 19.0015 52.0792C19.1507 51.7809 19.3611 51.5489 19.6329 51.3832C19.9063 51.2158 20.2295 51.1321 20.6024 51.1321C20.9123 51.1321 21.1865 51.1893 21.4252 51.3036C21.6655 51.4163 21.8569 51.5762 21.9994 51.7834C22.1419 51.9889 22.2231 52.2292 22.243 52.5043H21.3829C21.3481 52.3203 21.2652 52.167 21.1343 52.0444C21.0051 51.9201 20.8319 51.858 20.6148 51.858C20.4308 51.858 20.2693 51.9077 20.1301 52.0071C19.9909 52.1049 19.8823 52.2457 19.8044 52.4297C19.7282 52.6136 19.6901 52.834 19.6901 53.0909C19.6901 53.3511 19.7282 53.5748 19.8044 53.7621C19.8807 53.9477 19.9875 54.091 20.1251 54.1921C20.2643 54.2915 20.4275 54.3413 20.6148 54.3413C20.7474 54.3413 20.8659 54.3164 20.9703 54.2667C21.0763 54.2153 21.165 54.1416 21.2362 54.0455C21.3075 53.9493 21.3564 53.8325 21.3829 53.695H22.243C22.2214 53.9651 22.1419 54.2045 22.0044 54.4134C21.8668 54.6205 21.6795 54.7829 21.4426 54.9006C21.2056 55.0166 20.9272 55.0746 20.6073 55.0746ZM24.6722 55.0746C24.2894 55.0746 23.9588 54.995 23.6804 54.8359C23.4036 54.6752 23.1907 54.4482 23.0415 54.1548C22.8924 53.8598 22.8178 53.5127 22.8178 53.1133C22.8178 52.7205 22.8924 52.3758 23.0415 52.0792C23.1924 51.7809 23.4028 51.5489 23.6729 51.3832C23.9431 51.2158 24.2604 51.1321 24.625 51.1321C24.8603 51.1321 25.0824 51.1702 25.2912 51.2464C25.5017 51.321 25.6873 51.437 25.848 51.5945C26.0104 51.7519 26.138 51.9524 26.2308 52.196C26.3236 52.438 26.37 52.7263 26.37 53.0611V53.337H23.2404V52.7305H25.5075C25.5058 52.5581 25.4685 52.4048 25.3956 52.2706C25.3227 52.1347 25.2208 52.0278 25.0898 51.9499C24.9606 51.872 24.8098 51.8331 24.6374 51.8331C24.4535 51.8331 24.2919 51.8778 24.1527 51.9673C24.0135 52.0552 23.9049 52.1712 23.8271 52.3153C23.7508 52.4579 23.7119 52.6145 23.7102 52.7852V53.3146C23.7102 53.5367 23.7508 53.7273 23.832 53.8864C23.9132 54.0438 24.0268 54.1648 24.1726 54.2493C24.3184 54.3321 24.4891 54.3736 24.6847 54.3736C24.8156 54.3736 24.9341 54.3554 25.0401 54.3189C25.1462 54.2808 25.2382 54.2253 25.3161 54.1523C25.3939 54.0794 25.4528 53.9891 25.4925 53.8814L26.3327 53.9759C26.2797 54.1979 26.1786 54.3918 26.0295 54.5575C25.882 54.7216 25.6931 54.8492 25.4627 54.9403C25.2324 55.0298 24.9689 55.0746 24.6722 55.0746ZM30.1491 52.1911L29.3287 52.2805C29.3055 52.1977 29.2649 52.1198 29.2069 52.0469C29.1506 51.974 29.0744 51.9151 28.9782 51.8704C28.8821 51.8256 28.7645 51.8033 28.6253 51.8033C28.438 51.8033 28.2806 51.8439 28.153 51.9251C28.027 52.0063 27.9649 52.1115 27.9665 52.2408C27.9649 52.3518 28.0055 52.4421 28.0883 52.5117C28.1729 52.5813 28.3121 52.6385 28.5059 52.6832L29.1572 52.8224C29.5185 52.9003 29.787 53.0238 29.9626 53.1928C30.1399 53.3619 30.2294 53.5831 30.2311 53.8565C30.2294 54.0968 30.159 54.3089 30.0198 54.4929C29.8823 54.6752 29.6908 54.8177 29.4456 54.9205C29.2003 55.0232 28.9186 55.0746 28.6004 55.0746C28.1331 55.0746 27.7569 54.9768 27.4719 54.7812C27.1868 54.584 27.017 54.3098 26.9623 53.9585L27.8398 53.8739C27.8795 54.0463 27.964 54.1764 28.0933 54.2642C28.2226 54.352 28.3908 54.396 28.5979 54.396C28.8117 54.396 28.9832 54.352 29.1125 54.2642C29.2434 54.1764 29.3089 54.0678 29.3089 53.9386C29.3089 53.8292 29.2666 53.7389 29.1821 53.6676C29.0992 53.5964 28.97 53.5417 28.7943 53.5036L28.143 53.3668C27.7768 53.2906 27.5058 53.1622 27.3302 52.9815C27.1545 52.7992 27.0675 52.5689 27.0692 52.2905C27.0675 52.0552 27.1313 51.8513 27.2606 51.679C27.3915 51.505 27.5729 51.3707 27.805 51.2763C28.0386 51.1802 28.3079 51.1321 28.6128 51.1321C29.0603 51.1321 29.4124 51.2274 29.6693 51.418C29.9278 51.6085 30.0877 51.8662 30.1491 52.1911Z" fill="black"/>
<path d="M3.50213 9V3.90909H4.42436V6.06428H6.78338V3.90909H7.7081V9H6.78338V6.83736H4.42436V9H3.50213ZM9.77006 9.07706C9.52811 9.07706 9.31019 9.03397 9.1163 8.9478C8.92406 8.85997 8.7716 8.73071 8.65891 8.56001C8.54788 8.38932 8.49237 8.17886 8.49237 7.92862C8.49237 7.71319 8.53214 7.53504 8.61168 7.39418C8.69123 7.25331 8.79978 7.14062 8.93732 7.05611C9.07487 6.97159 9.22982 6.90779 9.40217 6.8647C9.57617 6.81996 9.75598 6.78764 9.94158 6.76776C10.1653 6.74455 10.3468 6.72384 10.486 6.70561C10.6252 6.68572 10.7263 6.65589 10.7892 6.61612C10.8539 6.57469 10.8862 6.51089 10.8862 6.42472V6.4098C10.8862 6.22254 10.8307 6.07753 10.7196 5.97479C10.6086 5.87204 10.4487 5.82067 10.2399 5.82067C10.0195 5.82067 9.84464 5.86873 9.71538 5.96484C9.58777 6.06096 9.5016 6.17448 9.45685 6.3054L8.61665 6.18608C8.68294 5.95407 8.79232 5.76018 8.94478 5.6044C9.09724 5.44697 9.28368 5.32931 9.50408 5.25142C9.72449 5.17188 9.9681 5.1321 10.2349 5.1321C10.4189 5.1321 10.602 5.15365 10.7843 5.19673C10.9666 5.23982 11.1331 5.31108 11.2839 5.41051C11.4347 5.50829 11.5557 5.64169 11.6468 5.81072C11.7396 5.97976 11.786 6.19105 11.786 6.4446V9H10.921V8.4755H10.8912C10.8365 8.58156 10.7594 8.68099 10.66 8.77379C10.5622 8.86494 10.4387 8.93868 10.2896 8.99503C10.1421 9.04972 9.96893 9.07706 9.77006 9.07706ZM10.0037 8.41584C10.1844 8.41584 10.341 8.38021 10.4735 8.30895C10.6061 8.23603 10.708 8.13991 10.7793 8.0206C10.8522 7.90128 10.8887 7.77119 10.8887 7.63033V7.1804C10.8605 7.2036 10.8124 7.22514 10.7445 7.24503C10.6782 7.26491 10.6036 7.28232 10.5208 7.29723C10.4379 7.31214 10.3559 7.3254 10.2747 7.337C10.1935 7.3486 10.123 7.35855 10.0634 7.36683C9.92915 7.38506 9.80901 7.41489 9.70295 7.45632C9.59689 7.49775 9.5132 7.55575 9.45188 7.63033C9.39057 7.70324 9.35991 7.7977 9.35991 7.91371C9.35991 8.07943 9.4204 8.20455 9.54137 8.28906C9.66235 8.37358 9.81647 8.41584 10.0037 8.41584ZM13.5907 6.76278V9H12.6909V5.18182H13.551V5.83061H13.5957C13.6835 5.61683 13.8236 5.44697 14.0158 5.32102C14.2097 5.19508 14.4492 5.1321 14.7342 5.1321C14.9977 5.1321 15.2272 5.18845 15.4228 5.30114C15.62 5.41383 15.7724 5.57706 15.8801 5.79084C15.9895 6.00462 16.0434 6.26397 16.0417 6.56889V9H15.1419V6.7081C15.1419 6.45289 15.0756 6.2532 14.943 6.10902C14.8121 5.96484 14.6306 5.89276 14.3986 5.89276C14.2412 5.89276 14.1011 5.92756 13.9785 5.99716C13.8575 6.0651 13.7623 6.16371 13.6926 6.29297C13.6247 6.42223 13.5907 6.57884 13.5907 6.76278ZM18.3734 9.06712C18.0734 9.06712 17.805 8.99006 17.568 8.83594C17.331 8.68182 17.1438 8.4581 17.0062 8.16477C16.8687 7.87145 16.7999 7.51515 16.7999 7.09588C16.7999 6.67164 16.8695 6.31368 17.0087 6.02202C17.1496 5.72869 17.3393 5.50746 17.5779 5.35831C17.8166 5.2075 18.0826 5.1321 18.3759 5.1321C18.5996 5.1321 18.7836 5.17022 18.9277 5.24645C19.0719 5.32102 19.1863 5.41134 19.2708 5.5174C19.3553 5.6218 19.4208 5.72041 19.4672 5.81321H19.5044V3.90909H20.4068V9H19.5218V8.39844H19.4672C19.4208 8.49124 19.3536 8.58984 19.2658 8.69425C19.178 8.79699 19.062 8.88482 18.9178 8.95774C18.7736 9.03066 18.5922 9.06712 18.3734 9.06712ZM18.6245 8.32884C18.815 8.32884 18.9775 8.27746 19.1117 8.17472C19.2459 8.07031 19.3478 7.92531 19.4174 7.7397C19.487 7.5541 19.5218 7.33783 19.5218 7.09091C19.5218 6.84399 19.487 6.62938 19.4174 6.44709C19.3495 6.2648 19.2484 6.12311 19.1142 6.02202C18.9816 5.92093 18.8184 5.87038 18.6245 5.87038C18.4239 5.87038 18.2566 5.92259 18.1223 6.02699C17.9881 6.13139 17.887 6.27557 17.8191 6.45952C17.7511 6.64347 17.7172 6.85393 17.7172 7.09091C17.7172 7.32955 17.7511 7.5425 17.8191 7.72976C17.8887 7.91536 17.9906 8.06203 18.1248 8.16974C18.2607 8.2758 18.4273 8.32884 18.6245 8.32884ZM22.2655 3.90909V9H21.3657V3.90909H22.2655ZM23.1909 9V5.18182H24.0907V9H23.1909ZM23.6433 4.63991C23.5008 4.63991 23.3781 4.59268 23.2754 4.49822C23.1726 4.40211 23.1213 4.28693 23.1213 4.1527C23.1213 4.01681 23.1726 3.90163 23.2754 3.80717C23.3781 3.71106 23.5008 3.663 23.6433 3.663C23.7875 3.663 23.9101 3.71106 24.0112 3.80717C24.1139 3.90163 24.1653 4.01681 24.1653 4.1527C24.1653 4.28693 24.1139 4.40211 24.0112 4.49822C23.9101 4.59268 23.7875 4.63991 23.6433 4.63991ZM25.9159 6.76278V9H25.0161V5.18182H25.8762V5.83061H25.9209C26.0087 5.61683 26.1488 5.44697 26.341 5.32102C26.5349 5.19508 26.7744 5.1321 27.0594 5.1321C27.3229 5.1321 27.5524 5.18845 27.748 5.30114C27.9452 5.41383 28.0976 5.57706 28.2053 5.79084C28.3147 6.00462 28.3686 6.26397 28.3669 6.56889V9H27.4671V6.7081C27.4671 6.45289 27.4008 6.2532 27.2682 6.10902C27.1373 5.96484 26.9558 5.89276 26.7238 5.89276C26.5664 5.89276 26.4263 5.92756 26.3037 5.99716C26.1827 6.0651 26.0874 6.16371 26.0178 6.29297C25.9499 6.42223 25.9159 6.57884 25.9159 6.76278ZM30.9422 10.5114C30.6191 10.5114 30.3415 10.4674 30.1095 10.3796C29.8775 10.2934 29.691 10.1774 29.5502 10.0316C29.4093 9.88577 29.3115 9.7242 29.2568 9.54688L30.0672 9.3505C30.1037 9.42507 30.1567 9.49882 30.2263 9.57173C30.2959 9.64631 30.3895 9.70762 30.5072 9.75568C30.6265 9.8054 30.7765 9.83026 30.9571 9.83026C31.2123 9.83026 31.4236 9.76811 31.591 9.64382C31.7584 9.52119 31.8421 9.31901 31.8421 9.03729V8.31392H31.7973C31.7509 8.40672 31.683 8.50201 31.5935 8.59979C31.5057 8.69756 31.3888 8.77959 31.243 8.84588C31.0988 8.91217 30.9173 8.94531 30.6986 8.94531C30.4053 8.94531 30.1393 8.87654 29.9007 8.73899C29.6637 8.59979 29.4748 8.39264 29.3339 8.11754C29.1947 7.84079 29.1251 7.49444 29.1251 7.07848C29.1251 6.65921 29.1947 6.3054 29.3339 6.01705C29.4748 5.72704 29.6645 5.50746 29.9031 5.35831C30.1418 5.2075 30.4078 5.1321 30.7011 5.1321C30.9248 5.1321 31.1088 5.17022 31.2529 5.24645C31.3988 5.32102 31.5148 5.41134 31.6009 5.5174C31.6871 5.6218 31.7526 5.72041 31.7973 5.81321H31.847V5.18182H32.7345V9.06214C32.7345 9.38861 32.6566 9.65874 32.5008 9.87251C32.345 10.0863 32.1321 10.2462 31.8619 10.3523C31.5918 10.4583 31.2852 10.5114 30.9422 10.5114ZM30.9497 8.23935C31.1402 8.23935 31.3026 8.19295 31.4369 8.10014C31.5711 8.00734 31.673 7.87393 31.7426 7.69993C31.8122 7.52592 31.847 7.31712 31.847 7.07351C31.847 6.83321 31.8122 6.62275 31.7426 6.44212C31.6747 6.26148 31.5736 6.12145 31.4394 6.02202C31.3068 5.92093 31.1436 5.87038 30.9497 5.87038C30.7491 5.87038 30.5818 5.92259 30.4475 6.02699C30.3133 6.13139 30.2122 6.27474 30.1443 6.45703C30.0763 6.63767 30.0423 6.84316 30.0423 7.07351C30.0423 7.30717 30.0763 7.51184 30.1443 7.6875C30.2139 7.86151 30.3158 7.9974 30.45 8.09517C30.5859 8.19129 30.7525 8.23935 30.9497 8.23935ZM35.393 9V5.18182H36.2929V9H35.393ZM35.8454 4.63991C35.7029 4.63991 35.5803 4.59268 35.4775 4.49822C35.3748 4.40211 35.3234 4.28693 35.3234 4.1527C35.3234 4.01681 35.3748 3.90163 35.4775 3.80717C35.5803 3.71106 35.7029 3.663 35.8454 3.663C35.9896 3.663 36.1122 3.71106 36.2133 3.80717C36.3161 3.90163 36.3675 4.01681 36.3675 4.1527C36.3675 4.28693 36.3161 4.40211 36.2133 4.49822C36.1122 4.59268 35.9896 4.63991 35.8454 4.63991ZM38.1181 6.76278V9H37.2182V5.18182H38.0783V5.83061H38.123C38.2109 5.61683 38.3509 5.44697 38.5431 5.32102C38.737 5.19508 38.9765 5.1321 39.2615 5.1321C39.525 5.1321 39.7546 5.18845 39.9501 5.30114C40.1473 5.41383 40.2998 5.57706 40.4075 5.79084C40.5169 6.00462 40.5707 6.26397 40.5691 6.56889V9H39.6692V6.7081C39.6692 6.45289 39.6029 6.2532 39.4703 6.10902C39.3394 5.96484 39.158 5.89276 38.926 5.89276C38.7685 5.89276 38.6285 5.92756 38.5059 5.99716C38.3849 6.0651 38.2896 6.16371 38.22 6.29297C38.152 6.42223 38.1181 6.57884 38.1181 6.76278ZM43.4178 5.18182V5.87784H41.1607V5.18182H43.4178ZM41.725 9V4.82138C41.725 4.56451 41.778 4.35073 41.8841 4.18004C41.9918 4.00935 42.1359 3.88175 42.3166 3.79723C42.4972 3.71271 42.6977 3.67045 42.9181 3.67045C43.0739 3.67045 43.2123 3.68288 43.3333 3.70774C43.4542 3.7326 43.5437 3.75497 43.6017 3.77486L43.4228 4.47088C43.3846 4.45928 43.3366 4.44768 43.2786 4.43608C43.2206 4.42282 43.156 4.41619 43.0847 4.41619C42.9173 4.41619 42.7988 4.45679 42.7292 4.538C42.6613 4.61754 42.6273 4.73189 42.6273 4.88104V9H41.725ZM45.6444 9.07457C45.2716 9.07457 44.9484 8.99254 44.675 8.82848C44.4015 8.66442 44.1894 8.4349 44.0386 8.13991C43.8895 7.84493 43.8149 7.50024 43.8149 7.10582C43.8149 6.71141 43.8895 6.36589 44.0386 6.06925C44.1894 5.77261 44.4015 5.54226 44.675 5.3782C44.9484 5.21413 45.2716 5.1321 45.6444 5.1321C46.0173 5.1321 46.3405 5.21413 46.6139 5.3782C46.8873 5.54226 47.0986 5.77261 47.2478 6.06925C47.3986 6.36589 47.474 6.71141 47.474 7.10582C47.474 7.50024 47.3986 7.84493 47.2478 8.13991C47.0986 8.4349 46.8873 8.66442 46.6139 8.82848C46.3405 8.99254 46.0173 9.07457 45.6444 9.07457ZM45.6494 8.35369C45.8516 8.35369 46.0206 8.29818 46.1565 8.18714C46.2924 8.07446 46.3935 7.92365 46.4598 7.73473C46.5277 7.54581 46.5617 7.33535 46.5617 7.10334C46.5617 6.86967 46.5277 6.65838 46.4598 6.46946C46.3935 6.27888 46.2924 6.12725 46.1565 6.01456C46.0206 5.90187 45.8516 5.84553 45.6494 5.84553C45.4423 5.84553 45.2699 5.90187 45.1324 6.01456C44.9965 6.12725 44.8946 6.27888 44.8266 6.46946C44.7603 6.65838 44.7272 6.86967 44.7272 7.10334C44.7272 7.33535 44.7603 7.54581 44.8266 7.73473C44.8946 7.92365 44.9965 8.07446 45.1324 8.18714C45.2699 8.29818 45.4423 8.35369 45.6494 8.35369ZM48.2377 9V5.18182H49.1103V5.81818H49.15C49.2196 5.59777 49.339 5.42791 49.508 5.30859C49.6787 5.18762 49.8734 5.12713 50.0922 5.12713C50.1419 5.12713 50.1974 5.12962 50.2587 5.13459C50.3217 5.1379 50.3739 5.1437 50.4153 5.15199V5.97976C50.3772 5.9665 50.3167 5.9549 50.2338 5.94496C50.1526 5.93336 50.0739 5.92756 49.9977 5.92756C49.8336 5.92756 49.6861 5.96319 49.5552 6.03445C49.426 6.10405 49.324 6.20099 49.2495 6.32528C49.1749 6.44957 49.1376 6.59292 49.1376 6.75533V9H48.2377ZM51.0131 9V5.18182H51.8732V5.83061H51.918C51.9975 5.61186 52.1293 5.44117 52.3132 5.31854C52.4972 5.19425 52.7167 5.1321 52.9719 5.1321C53.2305 5.1321 53.4484 5.19508 53.6257 5.32102C53.8047 5.44531 53.9306 5.61518 54.0036 5.83061H54.0433C54.1278 5.61849 54.2704 5.44946 54.4709 5.32351C54.6731 5.1959 54.9125 5.1321 55.1893 5.1321C55.5406 5.1321 55.8273 5.24313 56.0494 5.4652C56.2714 5.68726 56.3825 6.01125 56.3825 6.43714V9H55.4801V6.57635C55.4801 6.33937 55.4171 6.16619 55.2912 6.05682C55.1652 5.94579 55.0111 5.89027 54.8288 5.89027C54.6117 5.89027 54.4419 5.95821 54.3192 6.09411C54.1983 6.22834 54.1378 6.40317 54.1378 6.61861V9H53.2553V6.53906C53.2553 6.34186 53.1957 6.18442 53.0763 6.06676C52.9587 5.9491 52.8046 5.89027 52.614 5.89027C52.4847 5.89027 52.3671 5.92341 52.261 5.9897C52.1549 6.05433 52.0704 6.14631 52.0075 6.26562C51.9445 6.38329 51.913 6.52083 51.913 6.67827V9H51.0131ZM58.3941 9.07706C58.1521 9.07706 57.9342 9.03397 57.7403 8.9478C57.5481 8.85997 57.3956 8.73071 57.2829 8.56001C57.1719 8.38932 57.1164 8.17886 57.1164 7.92862C57.1164 7.71319 57.1562 7.53504 57.2357 7.39418C57.3153 7.25331 57.4238 7.14062 57.5613 7.05611C57.6989 6.97159 57.8538 6.90779 58.0262 6.8647C58.2002 6.81996 58.38 6.78764 58.5656 6.76776C58.7893 6.74455 58.9708 6.72384 59.11 6.70561C59.2492 6.68572 59.3503 6.65589 59.4133 6.61612C59.4779 6.57469 59.5102 6.51089 59.5102 6.42472V6.4098C59.5102 6.22254 59.4547 6.07753 59.3437 5.97479C59.2326 5.87204 59.0727 5.82067 58.8639 5.82067C58.6435 5.82067 58.4687 5.86873 58.3394 5.96484C58.2118 6.06096 58.1256 6.17448 58.0809 6.3054L57.2407 6.18608C57.307 5.95407 57.4163 5.76018 57.5688 5.6044C57.7213 5.44697 57.9077 5.32931 58.1281 5.25142C58.3485 5.17188 58.5921 5.1321 58.8589 5.1321C59.0429 5.1321 59.226 5.15365 59.4083 5.19673C59.5906 5.23982 59.7571 5.31108 59.9079 5.41051C60.0587 5.50829 60.1797 5.64169 60.2709 5.81072C60.3637 5.97976 60.4101 6.19105 60.4101 6.4446V9H59.545V8.4755H59.5152C59.4605 8.58156 59.3834 8.68099 59.284 8.77379C59.1862 8.86494 59.0628 8.93868 58.9136 8.99503C58.7661 9.04972 58.593 9.07706 58.3941 9.07706ZM58.6278 8.41584C58.8084 8.41584 58.965 8.38021 59.0976 8.30895C59.2301 8.23603 59.3321 8.13991 59.4033 8.0206C59.4762 7.90128 59.5127 7.77119 59.5127 7.63033V7.1804C59.4845 7.2036 59.4365 7.22514 59.3685 7.24503C59.3022 7.26491 59.2277 7.28232 59.1448 7.29723C59.0619 7.31214 58.9799 7.3254 58.8987 7.337C58.8175 7.3486 58.7471 7.35855 58.6874 7.36683C58.5532 7.38506 58.433 7.41489 58.327 7.45632C58.2209 7.49775 58.1372 7.55575 58.0759 7.63033C58.0146 7.70324 57.9839 7.7977 57.9839 7.91371C57.9839 8.07943 58.0444 8.20455 58.1654 8.28906C58.2864 8.37358 58.4405 8.41584 58.6278 8.41584ZM63.2215 5.18182V5.87784H61.0265V5.18182H63.2215ZM61.5684 4.26705H62.4683V7.85156C62.4683 7.97254 62.4865 8.06534 62.523 8.12997C62.5611 8.19295 62.6108 8.23603 62.6721 8.25923C62.7335 8.28243 62.8014 8.29403 62.876 8.29403C62.9323 8.29403 62.9837 8.28989 63.0301 8.28161C63.0782 8.27332 63.1146 8.26586 63.1395 8.25923L63.2911 8.96271C63.243 8.97929 63.1743 8.99751 63.0848 9.0174C62.997 9.03729 62.8892 9.04889 62.7616 9.0522C62.5363 9.05883 62.3332 9.02486 62.1526 8.95028C61.972 8.87405 61.8286 8.75639 61.7226 8.5973C61.6182 8.43821 61.5668 8.23935 61.5684 8.00071V4.26705ZM63.9741 9V5.18182H64.8739V9H63.9741ZM64.4265 4.63991C64.284 4.63991 64.1613 4.59268 64.0586 4.49822C63.9558 4.40211 63.9045 4.28693 63.9045 4.1527C63.9045 4.01681 63.9558 3.90163 64.0586 3.80717C64.1613 3.71106 64.284 3.663 64.4265 3.663C64.5707 3.663 64.6933 3.71106 64.7944 3.80717C64.8971 3.90163 64.9485 4.01681 64.9485 4.1527C64.9485 4.28693 64.8971 4.40211 64.7944 4.49822C64.6933 4.59268 64.5707 4.63991 64.4265 4.63991ZM67.4648 9.07457C67.0919 9.07457 66.7687 8.99254 66.4953 8.82848C66.2219 8.66442 66.0097 8.4349 65.8589 8.13991C65.7098 7.84493 65.6352 7.50024 65.6352 7.10582C65.6352 6.71141 65.7098 6.36589 65.8589 6.06925C66.0097 5.77261 66.2219 5.54226 66.4953 5.3782C66.7687 5.21413 67.0919 5.1321 67.4648 5.1321C67.8376 5.1321 68.1608 5.21413 68.4342 5.3782C68.7077 5.54226 68.9189 5.77261 69.0681 6.06925C69.2189 6.36589 69.2943 6.71141 69.2943 7.10582C69.2943 7.50024 69.2189 7.84493 69.0681 8.13991C68.9189 8.4349 68.7077 8.66442 68.4342 8.82848C68.1608 8.99254 67.8376 9.07457 67.4648 9.07457ZM67.4697 8.35369C67.6719 8.35369 67.8409 8.29818 67.9768 8.18714C68.1127 8.07446 68.2138 7.92365 68.2801 7.73473C68.348 7.54581 68.382 7.33535 68.382 7.10334C68.382 6.86967 68.348 6.65838 68.2801 6.46946C68.2138 6.27888 68.1127 6.12725 67.9768 6.01456C67.8409 5.90187 67.6719 5.84553 67.4697 5.84553C67.2626 5.84553 67.0902 5.90187 66.9527 6.01456C66.8168 6.12725 66.7149 6.27888 66.6469 6.46946C66.5806 6.65838 66.5475 6.86967 66.5475 7.10334C66.5475 7.33535 66.5806 7.54581 66.6469 7.73473C66.7149 7.92365 66.8168 8.07446 66.9527 8.18714C67.0902 8.29818 67.2626 8.35369 67.4697 8.35369ZM70.9579 6.76278V9H70.0581V5.18182H70.9181V5.83061H70.9629C71.0507 5.61683 71.1908 5.44697 71.383 5.32102C71.5769 5.19508 71.8163 5.1321 72.1014 5.1321C72.3649 5.1321 72.5944 5.18845 72.79 5.30114C72.9872 5.41383 73.1396 5.57706 73.2473 5.79084C73.3567 6.00462 73.4106 6.26397 73.4089 6.56889V9H72.5091V6.7081C72.5091 6.45289 72.4428 6.2532 72.3102 6.10902C72.1793 5.96484 71.9978 5.89276 71.7658 5.89276C71.6084 5.89276 71.4683 5.92756 71.3457 5.99716C71.2247 6.0651 71.1294 6.16371 71.0598 6.29297C70.9919 6.42223 70.9579 6.57884 70.9579 6.76278Z" fill="black"/>
<path d="M358.686 43.9091V49H357.865L355.467 45.5323H355.424V49H354.502V43.9091H355.327L357.724 47.3793H357.768V43.9091H358.686ZM360.75 49.0771C360.508 49.0771 360.29 49.034 360.096 48.9478C359.904 48.86 359.751 48.7307 359.638 48.56C359.527 48.3893 359.472 48.1789 359.472 47.9286C359.472 47.7132 359.512 47.535 359.591 47.3942C359.671 47.2533 359.779 47.1406 359.917 47.0561C360.054 46.9716 360.209 46.9078 360.382 46.8647C360.556 46.82 360.735 46.7876 360.921 46.7678C361.145 46.7446 361.326 46.7238 361.465 46.7056C361.605 46.6857 361.706 46.6559 361.769 46.6161C361.833 46.5747 361.866 46.5109 361.866 46.4247V46.4098C361.866 46.2225 361.81 46.0775 361.699 45.9748C361.588 45.872 361.428 45.8207 361.219 45.8207C360.999 45.8207 360.824 45.8687 360.695 45.9648C360.567 46.061 360.481 46.1745 360.436 46.3054L359.596 46.1861C359.662 45.9541 359.772 45.7602 359.924 45.6044C360.077 45.447 360.263 45.3293 360.484 45.2514C360.704 45.1719 360.948 45.1321 361.214 45.1321C361.398 45.1321 361.581 45.1536 361.764 45.1967C361.946 45.2398 362.113 45.3111 362.263 45.4105C362.414 45.5083 362.535 45.6417 362.626 45.8107C362.719 45.9798 362.766 46.1911 362.766 46.4446V49H361.9V48.4755H361.871C361.816 48.5816 361.739 48.681 361.639 48.7738C361.542 48.8649 361.418 48.9387 361.269 48.995C361.122 49.0497 360.948 49.0771 360.75 49.0771ZM360.983 48.4158C361.164 48.4158 361.32 48.3802 361.453 48.3089C361.586 48.236 361.688 48.1399 361.759 48.0206C361.832 47.9013 361.868 47.7712 361.868 47.6303V47.1804C361.84 47.2036 361.792 47.2251 361.724 47.245C361.658 47.2649 361.583 47.2823 361.5 47.2972C361.417 47.3121 361.335 47.3254 361.254 47.337C361.173 47.3486 361.103 47.3585 361.043 47.3668C360.909 47.3851 360.789 47.4149 360.682 47.4563C360.576 47.4978 360.493 47.5558 360.431 47.6303C360.37 47.7032 360.339 47.7977 360.339 47.9137C360.339 48.0794 360.4 48.2045 360.521 48.2891C360.642 48.3736 360.796 48.4158 360.983 48.4158ZM365.577 45.1818V45.8778H363.382V45.1818H365.577ZM363.924 44.267H364.824V47.8516C364.824 47.9725 364.842 48.0653 364.878 48.13C364.917 48.1929 364.966 48.236 365.028 48.2592C365.089 48.2824 365.157 48.294 365.231 48.294C365.288 48.294 365.339 48.2899 365.386 48.2816C365.434 48.2733 365.47 48.2659 365.495 48.2592L365.647 48.9627C365.599 48.9793 365.53 48.9975 365.44 49.0174C365.352 49.0373 365.245 49.0489 365.117 49.0522C364.892 49.0588 364.689 49.0249 364.508 48.9503C364.327 48.8741 364.184 48.7564 364.078 48.5973C363.974 48.4382 363.922 48.2393 363.924 48.0007V44.267ZM368.763 47.3942V45.1818H369.663V49H368.79V48.3214H368.751C368.665 48.5352 368.523 48.71 368.326 48.8459C368.13 48.9818 367.889 49.0497 367.602 49.0497C367.352 49.0497 367.131 48.9942 366.939 48.8832C366.748 48.7705 366.599 48.6072 366.491 48.3935C366.383 48.178 366.33 47.9179 366.33 47.6129V45.1818H367.229V47.4737C367.229 47.7157 367.296 47.9079 367.428 48.0504C367.561 48.1929 367.735 48.2642 367.95 48.2642C368.083 48.2642 368.211 48.2319 368.336 48.1673C368.46 48.1026 368.562 48.0065 368.641 47.8789C368.723 47.7496 368.763 47.5881 368.763 47.3942ZM370.588 49V45.1818H371.461V45.8182H371.501C371.57 45.5978 371.69 45.4279 371.859 45.3086C372.029 45.1876 372.224 45.1271 372.443 45.1271C372.492 45.1271 372.548 45.1296 372.609 45.1346C372.672 45.1379 372.724 45.1437 372.766 45.152V45.9798C372.728 45.9665 372.667 45.9549 372.584 45.945C372.503 45.9334 372.425 45.9276 372.348 45.9276C372.184 45.9276 372.037 45.9632 371.906 46.0344C371.777 46.104 371.675 46.201 371.6 46.3253C371.525 46.4496 371.488 46.5929 371.488 46.7553V49H370.588ZM374.897 49.0746C374.514 49.0746 374.183 48.995 373.905 48.8359C373.628 48.6752 373.415 48.4482 373.266 48.1548C373.117 47.8598 373.042 47.5127 373.042 47.1133C373.042 46.7205 373.117 46.3758 373.266 46.0792C373.417 45.7809 373.627 45.5489 373.898 45.3832C374.168 45.2158 374.485 45.1321 374.85 45.1321C375.085 45.1321 375.307 45.1702 375.516 45.2464C375.726 45.321 375.912 45.437 376.073 45.5945C376.235 45.7519 376.363 45.9524 376.455 46.196C376.548 46.438 376.595 46.7263 376.595 47.0611V47.337H373.465V46.7305H375.732C375.73 46.5581 375.693 46.4048 375.62 46.2706C375.547 46.1347 375.445 46.0278 375.314 45.9499C375.185 45.872 375.034 45.8331 374.862 45.8331C374.678 45.8331 374.517 45.8778 374.377 45.9673C374.238 46.0552 374.13 46.1712 374.052 46.3153C373.975 46.4579 373.936 46.6145 373.935 46.7852V47.3146C373.935 47.5367 373.975 47.7273 374.057 47.8864C374.138 48.0438 374.251 48.1648 374.397 48.2493C374.543 48.3321 374.714 48.3736 374.909 48.3736C375.04 48.3736 375.159 48.3554 375.265 48.3189C375.371 48.2808 375.463 48.2253 375.541 48.1523C375.619 48.0794 375.677 47.9891 375.717 47.8814L376.557 47.9759C376.504 48.1979 376.403 48.3918 376.254 48.5575C376.107 48.7216 375.918 48.8492 375.687 48.9403C375.457 49.0298 375.193 49.0746 374.897 49.0746ZM380.191 49.0771C379.949 49.0771 379.731 49.034 379.537 48.9478C379.345 48.86 379.193 48.7307 379.08 48.56C378.969 48.3893 378.913 48.1789 378.913 47.9286C378.913 47.7132 378.953 47.535 379.033 47.3942C379.112 47.2533 379.221 47.1406 379.358 47.0561C379.496 46.9716 379.651 46.9078 379.823 46.8647C379.997 46.82 380.177 46.7876 380.362 46.7678C380.586 46.7446 380.768 46.7238 380.907 46.7056C381.046 46.6857 381.147 46.6559 381.21 46.6161C381.275 46.5747 381.307 46.5109 381.307 46.4247V46.4098C381.307 46.2225 381.252 46.0775 381.141 45.9748C381.03 45.872 380.87 45.8207 380.661 45.8207C380.44 45.8207 380.266 45.8687 380.136 45.9648C380.009 46.061 379.922 46.1745 379.878 46.3054L379.038 46.1861C379.104 45.9541 379.213 45.7602 379.366 45.6044C379.518 45.447 379.705 45.3293 379.925 45.2514C380.145 45.1719 380.389 45.1321 380.656 45.1321C380.84 45.1321 381.023 45.1536 381.205 45.1967C381.387 45.2398 381.554 45.3111 381.705 45.4105C381.856 45.5083 381.977 45.6417 382.068 45.8107C382.161 45.9798 382.207 46.1911 382.207 46.4446V49H381.342V48.4755H381.312C381.257 48.5816 381.18 48.681 381.081 48.7738C380.983 48.8649 380.86 48.9387 380.71 48.995C380.563 49.0497 380.39 49.0771 380.191 49.0771ZM380.425 48.4158C380.605 48.4158 380.762 48.3802 380.894 48.3089C381.027 48.236 381.129 48.1399 381.2 48.0206C381.273 47.9013 381.31 47.7712 381.31 47.6303V47.1804C381.281 47.2036 381.233 47.2251 381.165 47.245C381.099 47.2649 381.025 47.2823 380.942 47.2972C380.859 47.3121 380.777 47.3254 380.696 47.337C380.614 47.3486 380.544 47.3585 380.484 47.3668C380.35 47.3851 380.23 47.4149 380.124 47.4563C380.018 47.4978 379.934 47.5558 379.873 47.6303C379.811 47.7032 379.781 47.7977 379.781 47.9137C379.781 48.0794 379.841 48.2045 379.962 48.2891C380.083 48.3736 380.237 48.4158 380.425 48.4158ZM384.012 46.7628V49H383.112V45.1818H383.972V45.8306H384.017C384.104 45.6168 384.244 45.447 384.437 45.321C384.631 45.1951 384.87 45.1321 385.155 45.1321C385.419 45.1321 385.648 45.1884 385.844 45.3011C386.041 45.4138 386.193 45.5771 386.301 45.7908C386.41 46.0046 386.464 46.264 386.463 46.5689V49H385.563V46.7081C385.563 46.4529 385.496 46.2532 385.364 46.109C385.233 45.9648 385.052 45.8928 384.82 45.8928C384.662 45.8928 384.522 45.9276 384.399 45.9972C384.278 46.0651 384.183 46.1637 384.114 46.293C384.046 46.4222 384.012 46.5788 384.012 46.7628ZM388.794 49.0671C388.494 49.0671 388.226 48.9901 387.989 48.8359C387.752 48.6818 387.565 48.4581 387.427 48.1648C387.29 47.8714 387.221 47.5152 387.221 47.0959C387.221 46.6716 387.29 46.3137 387.43 46.022C387.57 45.7287 387.76 45.5075 387.999 45.3583C388.237 45.2075 388.503 45.1321 388.797 45.1321C389.021 45.1321 389.204 45.1702 389.349 45.2464C389.493 45.321 389.607 45.4113 389.692 45.5174C389.776 45.6218 389.842 45.7204 389.888 45.8132H389.925V43.9091H390.828V49H389.943V48.3984H389.888C389.842 48.4912 389.775 48.5898 389.687 48.6942C389.599 48.797 389.483 48.8848 389.339 48.9577C389.195 49.0307 389.013 49.0671 388.794 49.0671ZM389.045 48.3288C389.236 48.3288 389.398 48.2775 389.533 48.1747C389.667 48.0703 389.769 47.9253 389.838 47.7397C389.908 47.5541 389.943 47.3378 389.943 47.0909C389.943 46.844 389.908 46.6294 389.838 46.4471C389.77 46.2648 389.669 46.1231 389.535 46.022C389.402 45.9209 389.239 45.8704 389.045 45.8704C388.845 45.8704 388.677 45.9226 388.543 46.027C388.409 46.1314 388.308 46.2756 388.24 46.4595C388.172 46.6435 388.138 46.8539 388.138 47.0909C388.138 47.3295 388.172 47.5425 388.24 47.7298C388.31 47.9154 388.411 48.062 388.546 48.1697C388.682 48.2758 388.848 48.3288 389.045 48.3288ZM395.459 47.2898H396.295L396.789 47.9311L397.142 48.3487L397.99 49.4375H397.095L396.518 48.7067L396.272 48.3587L395.459 47.2898ZM398.112 46.4545C398.112 47.0031 398.009 47.4729 397.803 47.864C397.6 48.2534 397.321 48.5517 396.968 48.7589C396.617 48.966 396.218 49.0696 395.773 49.0696C395.327 49.0696 394.927 48.966 394.574 48.7589C394.223 48.5501 393.945 48.2509 393.739 47.8615C393.535 47.4704 393.433 47.0014 393.433 46.4545C393.433 45.906 393.535 45.437 393.739 45.0476C393.945 44.6565 394.223 44.3574 394.574 44.1502C394.927 43.9431 395.327 43.8395 395.773 43.8395C396.218 43.8395 396.617 43.9431 396.968 44.1502C397.321 44.3574 397.6 44.6565 397.803 45.0476C398.009 45.437 398.112 45.906 398.112 46.4545ZM397.184 46.4545C397.184 46.0684 397.124 45.7428 397.003 45.4776C396.884 45.2108 396.718 45.0095 396.506 44.8736C396.294 44.736 396.049 44.6673 395.773 44.6673C395.496 44.6673 395.251 44.736 395.039 44.8736C394.827 45.0095 394.661 45.2108 394.54 45.4776C394.42 45.7428 394.361 46.0684 394.361 46.4545C394.361 46.8407 394.42 47.1671 394.54 47.4339C394.661 47.6991 394.827 47.9004 395.039 48.038C395.251 48.1739 395.496 48.2418 395.773 48.2418C396.049 48.2418 396.294 48.1739 396.506 48.038C396.718 47.9004 396.884 47.6991 397.003 47.4339C397.124 47.1671 397.184 46.8407 397.184 46.4545ZM401.384 47.3942V45.1818H402.284V49H401.412V48.3214H401.372C401.286 48.5352 401.144 48.71 400.947 48.8459C400.751 48.9818 400.51 49.0497 400.223 49.0497C399.973 49.0497 399.752 48.9942 399.56 48.8832C399.369 48.7705 399.22 48.6072 399.112 48.3935C399.004 48.178 398.951 47.9179 398.951 47.6129V45.1818H399.85V47.4737C399.85 47.7157 399.917 47.9079 400.049 48.0504C400.182 48.1929 400.356 48.2642 400.571 48.2642C400.704 48.2642 400.832 48.2319 400.957 48.1673C401.081 48.1026 401.183 48.0065 401.262 47.8789C401.344 47.7496 401.384 47.5881 401.384 47.3942ZM404.308 49.0771C404.066 49.0771 403.848 49.034 403.654 48.9478C403.462 48.86 403.31 48.7307 403.197 48.56C403.086 48.3893 403.03 48.1789 403.03 47.9286C403.03 47.7132 403.07 47.535 403.15 47.3942C403.229 47.2533 403.338 47.1406 403.475 47.0561C403.613 46.9716 403.768 46.9078 403.94 46.8647C404.114 46.82 404.294 46.7876 404.48 46.7678C404.703 46.7446 404.885 46.7238 405.024 46.7056C405.163 46.6857 405.264 46.6559 405.327 46.6161C405.392 46.5747 405.424 46.5109 405.424 46.4247V46.4098C405.424 46.2225 405.369 46.0775 405.258 45.9748C405.147 45.872 404.987 45.8207 404.778 45.8207C404.558 45.8207 404.383 45.8687 404.253 45.9648C404.126 46.061 404.04 46.1745 403.995 46.3054L403.155 46.1861C403.221 45.9541 403.33 45.7602 403.483 45.6044C403.635 45.447 403.822 45.3293 404.042 45.2514C404.263 45.1719 404.506 45.1321 404.773 45.1321C404.957 45.1321 405.14 45.1536 405.322 45.1967C405.505 45.2398 405.671 45.3111 405.822 45.4105C405.973 45.5083 406.094 45.6417 406.185 45.8107C406.278 45.9798 406.324 46.1911 406.324 46.4446V49H405.459V48.4755H405.429C405.375 48.5816 405.297 48.681 405.198 48.7738C405.1 48.8649 404.977 48.9387 404.828 48.995C404.68 49.0497 404.507 49.0771 404.308 49.0771ZM404.542 48.4158C404.722 48.4158 404.879 48.3802 405.012 48.3089C405.144 48.236 405.246 48.1399 405.317 48.0206C405.39 47.9013 405.427 47.7712 405.427 47.6303V47.1804C405.399 47.2036 405.351 47.2251 405.283 47.245C405.216 47.2649 405.142 47.2823 405.059 47.2972C404.976 47.3121 404.894 47.3254 404.813 47.337C404.732 47.3486 404.661 47.3585 404.601 47.3668C404.467 47.3851 404.347 47.4149 404.241 47.4563C404.135 47.4978 404.051 47.5558 403.99 47.6303C403.929 47.7032 403.898 47.7977 403.898 47.9137C403.898 48.0794 403.958 48.2045 404.079 48.2891C404.2 48.3736 404.355 48.4158 404.542 48.4158ZM408.129 46.7628V49H407.229V45.1818H408.089V45.8306H408.134C408.222 45.6168 408.362 45.447 408.554 45.321C408.748 45.1951 408.987 45.1321 409.272 45.1321C409.536 45.1321 409.765 45.1884 409.961 45.3011C410.158 45.4138 410.311 45.5771 410.418 45.7908C410.528 46.0046 410.581 46.264 410.58 46.5689V49H409.68V46.7081C409.68 46.4529 409.614 46.2532 409.481 46.109C409.35 45.9648 409.169 45.8928 408.937 45.8928C408.779 45.8928 408.639 45.9276 408.517 45.9972C408.396 46.0651 408.3 46.1637 408.231 46.293C408.163 46.4222 408.129 46.5788 408.129 46.7628ZM413.401 45.1818V45.8778H411.206V45.1818H413.401ZM411.748 44.267H412.648V47.8516C412.648 47.9725 412.666 48.0653 412.703 48.13C412.741 48.1929 412.791 48.236 412.852 48.2592C412.913 48.2824 412.981 48.294 413.056 48.294C413.112 48.294 413.163 48.2899 413.21 48.2816C413.258 48.2733 413.294 48.2659 413.319 48.2592L413.471 48.9627C413.423 48.9793 413.354 48.9975 413.264 49.0174C413.177 49.0373 413.069 49.0489 412.941 49.0522C412.716 49.0588 412.513 49.0249 412.332 48.9503C412.152 48.8741 412.008 48.7564 411.902 48.5973C411.798 48.4382 411.746 48.2393 411.748 48.0007V44.267ZM414.154 49V45.1818H415.054V49H414.154ZM414.606 44.6399C414.464 44.6399 414.341 44.5927 414.238 44.4982C414.136 44.4021 414.084 44.2869 414.084 44.1527C414.084 44.0168 414.136 43.9016 414.238 43.8072C414.341 43.7111 414.464 43.663 414.606 43.663C414.75 43.663 414.873 43.7111 414.974 43.8072C415.077 43.9016 415.128 44.0168 415.128 44.1527C415.128 44.2869 415.077 44.4021 414.974 44.4982C414.873 44.5927 414.75 44.6399 414.606 44.6399ZM417.886 45.1818V45.8778H415.691V45.1818H417.886ZM416.233 44.267H417.132V47.8516C417.132 47.9725 417.151 48.0653 417.187 48.13C417.225 48.1929 417.275 48.236 417.336 48.2592C417.398 48.2824 417.465 48.294 417.54 48.294C417.596 48.294 417.648 48.2899 417.694 48.2816C417.742 48.2733 417.779 48.2659 417.804 48.2592L417.955 48.9627C417.907 48.9793 417.838 48.9975 417.749 49.0174C417.661 49.0373 417.553 49.0489 417.426 49.0522C417.2 49.0588 416.997 49.0249 416.817 48.9503C416.636 48.8741 416.493 48.7564 416.387 48.5973C416.282 48.4382 416.231 48.2393 416.233 48.0007V44.267ZM419.197 50.4318C419.075 50.4318 418.961 50.4219 418.857 50.402C418.754 50.3838 418.672 50.3622 418.611 50.3374L418.82 49.6364C418.951 49.6745 419.067 49.6927 419.17 49.6911C419.273 49.6894 419.363 49.6571 419.441 49.5941C419.521 49.5328 419.588 49.43 419.642 49.2859L419.719 49.0795L418.335 45.1818H419.289L420.169 48.0653H420.209L421.092 45.1818H422.049L420.52 49.4624C420.449 49.6645 420.354 49.8377 420.237 49.9819C420.119 50.1277 419.975 50.2388 419.804 50.315C419.635 50.3929 419.433 50.4318 419.197 50.4318ZM426.073 49.0746C425.7 49.0746 425.377 48.9925 425.104 48.8285C424.83 48.6644 424.618 48.4349 424.467 48.1399C424.318 47.8449 424.244 47.5002 424.244 47.1058C424.244 46.7114 424.318 46.3659 424.467 46.0692C424.618 45.7726 424.83 45.5423 425.104 45.3782C425.377 45.2141 425.7 45.1321 426.073 45.1321C426.446 45.1321 426.769 45.2141 427.043 45.3782C427.316 45.5423 427.527 45.7726 427.676 46.0692C427.827 46.3659 427.903 46.7114 427.903 47.1058C427.903 47.5002 427.827 47.8449 427.676 48.1399C427.527 48.4349 427.316 48.6644 427.043 48.8285C426.769 48.9925 426.446 49.0746 426.073 49.0746ZM426.078 48.3537C426.28 48.3537 426.449 48.2982 426.585 48.1871C426.721 48.0745 426.822 47.9237 426.888 47.7347C426.956 47.5458 426.99 47.3353 426.99 47.1033C426.99 46.8697 426.956 46.6584 426.888 46.4695C426.822 46.2789 426.721 46.1272 426.585 46.0146C426.449 45.9019 426.28 45.8455 426.078 45.8455C425.871 45.8455 425.699 45.9019 425.561 46.0146C425.425 46.1272 425.323 46.2789 425.255 46.4695C425.189 46.6584 425.156 46.8697 425.156 47.1033C425.156 47.3353 425.189 47.5458 425.255 47.7347C425.323 47.9237 425.425 48.0745 425.561 48.1871C425.699 48.2982 425.871 48.3537 426.078 48.3537ZM430.6 45.1818V45.8778H428.343V45.1818H430.6ZM428.908 49V44.8214C428.908 44.5645 428.961 44.3507 429.067 44.18C429.174 44.0094 429.319 43.8817 429.499 43.7972C429.68 43.7127 429.88 43.6705 430.101 43.6705C430.257 43.6705 430.395 43.6829 430.516 43.7077C430.637 43.7326 430.726 43.755 430.784 43.7749L430.605 44.4709C430.567 44.4593 430.519 44.4477 430.461 44.4361C430.403 44.4228 430.339 44.4162 430.267 44.4162C430.1 44.4162 429.981 44.4568 429.912 44.538C429.844 44.6175 429.81 44.7319 429.81 44.881V49H428.908ZM436.492 45.5348C436.45 45.4006 436.393 45.2804 436.32 45.1744C436.249 45.0666 436.163 44.9747 436.062 44.8984C435.962 44.8222 435.848 44.765 435.719 44.7269C435.589 44.6871 435.449 44.6673 435.296 44.6673C435.023 44.6673 434.779 44.736 434.565 44.8736C434.351 45.0111 434.183 45.2133 434.061 45.4801C433.94 45.7453 433.879 46.0684 433.879 46.4496C433.879 46.834 433.94 47.1597 434.061 47.4265C434.182 47.6933 434.35 47.8963 434.565 48.0355C434.781 48.1731 435.031 48.2418 435.316 48.2418C435.574 48.2418 435.798 48.1921 435.987 48.0927C436.178 47.9933 436.324 47.8524 436.427 47.6701C436.53 47.4862 436.581 47.2707 436.581 47.0238L436.79 47.0561H435.408V46.3352H437.474V46.9467C437.474 47.3826 437.381 47.7596 437.195 48.0778C437.01 48.396 436.754 48.6412 436.43 48.8136C436.105 48.9843 435.732 49.0696 435.311 49.0696C434.842 49.0696 434.43 48.9644 434.076 48.7539C433.723 48.5418 433.447 48.241 433.248 47.8516C433.051 47.4605 432.952 46.9964 432.952 46.4595C432.952 46.0485 433.01 45.6815 433.126 45.3583C433.244 45.0352 433.408 44.7609 433.618 44.5355C433.829 44.3085 434.076 44.1361 434.359 44.0185C434.642 43.8991 434.951 43.8395 435.284 43.8395C435.565 43.8395 435.828 43.8809 436.072 43.9638C436.315 44.045 436.532 44.161 436.72 44.3118C436.911 44.4626 437.068 44.6416 437.19 44.8487C437.313 45.0559 437.393 45.2846 437.431 45.5348H436.492ZM439.991 49.0746C439.618 49.0746 439.295 48.9925 439.022 48.8285C438.748 48.6644 438.536 48.4349 438.385 48.1399C438.236 47.8449 438.162 47.5002 438.162 47.1058C438.162 46.7114 438.236 46.3659 438.385 46.0692C438.536 45.7726 438.748 45.5423 439.022 45.3782C439.295 45.2141 439.618 45.1321 439.991 45.1321C440.364 45.1321 440.687 45.2141 440.961 45.3782C441.234 45.5423 441.445 45.7726 441.594 46.0692C441.745 46.3659 441.821 46.7114 441.821 47.1058C441.821 47.5002 441.745 47.8449 441.594 48.1399C441.445 48.4349 441.234 48.6644 440.961 48.8285C440.687 48.9925 440.364 49.0746 439.991 49.0746ZM439.996 48.3537C440.198 48.3537 440.367 48.2982 440.503 48.1871C440.639 48.0745 440.74 47.9237 440.806 47.7347C440.874 47.5458 440.908 47.3353 440.908 47.1033C440.908 46.8697 440.874 46.6584 440.806 46.4695C440.74 46.2789 440.639 46.1272 440.503 46.0146C440.367 45.9019 440.198 45.8455 439.996 45.8455C439.789 45.8455 439.617 45.9019 439.479 46.0146C439.343 46.1272 439.241 46.2789 439.173 46.4695C439.107 46.6584 439.074 46.8697 439.074 47.1033C439.074 47.3353 439.107 47.5458 439.173 47.7347C439.241 47.9237 439.343 48.0745 439.479 48.1871C439.617 48.2982 439.789 48.3537 439.996 48.3537ZM444.25 49.0746C443.877 49.0746 443.554 48.9925 443.28 48.8285C443.007 48.6644 442.795 48.4349 442.644 48.1399C442.495 47.8449 442.42 47.5002 442.42 47.1058C442.42 46.7114 442.495 46.3659 442.644 46.0692C442.795 45.7726 443.007 45.5423 443.28 45.3782C443.554 45.2141 443.877 45.1321 444.25 45.1321C444.623 45.1321 444.946 45.2141 445.219 45.3782C445.493 45.5423 445.704 45.7726 445.853 46.0692C446.004 46.3659 446.079 46.7114 446.079 47.1058C446.079 47.5002 446.004 47.8449 445.853 48.1399C445.704 48.4349 445.493 48.6644 445.219 48.8285C444.946 48.9925 444.623 49.0746 444.25 49.0746ZM444.255 48.3537C444.457 48.3537 444.626 48.2982 444.762 48.1871C444.898 48.0745 444.999 47.9237 445.065 47.7347C445.133 47.5458 445.167 47.3353 445.167 47.1033C445.167 46.8697 445.133 46.6584 445.065 46.4695C444.999 46.2789 444.898 46.1272 444.762 46.0146C444.626 45.9019 444.457 45.8455 444.255 45.8455C444.048 45.8455 443.875 45.9019 443.738 46.0146C443.602 46.1272 443.5 46.2789 443.432 46.4695C443.366 46.6584 443.333 46.8697 443.333 47.1033C443.333 47.3353 443.366 47.5458 443.432 47.7347C443.5 47.9237 443.602 48.0745 443.738 48.1871C443.875 48.2982 444.048 48.3537 444.255 48.3537ZM448.26 49.0671C447.96 49.0671 447.692 48.9901 447.455 48.8359C447.218 48.6818 447.03 48.4581 446.893 48.1648C446.755 47.8714 446.687 47.5152 446.687 47.0959C446.687 46.6716 446.756 46.3137 446.895 46.022C447.036 45.7287 447.226 45.5075 447.465 45.3583C447.703 45.2075 447.969 45.1321 448.263 45.1321C448.486 45.1321 448.67 45.1702 448.814 45.2464C448.959 45.321 449.073 45.4113 449.157 45.5174C449.242 45.6218 449.307 45.7204 449.354 45.8132H449.391V43.9091H450.294V49H449.409V48.3984H449.354C449.307 48.4912 449.24 48.5898 449.153 48.6942C449.065 48.797 448.949 48.8848 448.805 48.9577C448.66 49.0307 448.479 49.0671 448.26 49.0671ZM448.511 48.3288C448.702 48.3288 448.864 48.2775 448.998 48.1747C449.133 48.0703 449.235 47.9253 449.304 47.7397C449.374 47.5541 449.409 47.3378 449.409 47.0909C449.409 46.844 449.374 46.6294 449.304 46.4471C449.236 46.2648 449.135 46.1231 449.001 46.022C448.868 45.9209 448.705 45.8704 448.511 45.8704C448.311 45.8704 448.143 45.9226 448.009 46.027C447.875 46.1314 447.774 46.2756 447.706 46.4595C447.638 46.6435 447.604 46.8539 447.604 47.0909C447.604 47.3295 447.638 47.5425 447.706 47.7298C447.775 47.9154 447.877 48.062 448.012 48.1697C448.147 48.2758 448.314 48.3288 448.511 48.3288ZM454.27 46.1911L453.45 46.2805C453.427 46.1977 453.386 46.1198 453.328 46.0469C453.272 45.974 453.195 45.9151 453.099 45.8704C453.003 45.8256 452.886 45.8033 452.746 45.8033C452.559 45.8033 452.402 45.8439 452.274 45.9251C452.148 46.0063 452.086 46.1115 452.088 46.2408C452.086 46.3518 452.127 46.4421 452.209 46.5117C452.294 46.5813 452.433 46.6385 452.627 46.6832L453.278 46.8224C453.64 46.9003 453.908 47.0238 454.084 47.1928C454.261 47.3619 454.351 47.5831 454.352 47.8565C454.351 48.0968 454.28 48.3089 454.141 48.4929C454.003 48.6752 453.812 48.8177 453.567 48.9205C453.321 49.0232 453.04 49.0746 452.722 49.0746C452.254 49.0746 451.878 48.9768 451.593 48.7812C451.308 48.584 451.138 48.3098 451.083 47.9585L451.961 47.8739C452.001 48.0463 452.085 48.1764 452.214 48.2642C452.344 48.352 452.512 48.396 452.719 48.396C452.933 48.396 453.104 48.352 453.234 48.2642C453.364 48.1764 453.43 48.0678 453.43 47.9386C453.43 47.8292 453.388 47.7389 453.303 47.6676C453.22 47.5964 453.091 47.5417 452.915 47.5036L452.264 47.3668C451.898 47.2906 451.627 47.1622 451.451 46.9815C451.276 46.7992 451.189 46.5689 451.19 46.2905C451.189 46.0552 451.252 45.8513 451.382 45.679C451.513 45.505 451.694 45.3707 451.926 45.2763C452.16 45.1802 452.429 45.1321 452.734 45.1321C453.181 45.1321 453.534 45.2274 453.79 45.418C454.049 45.6085 454.209 45.8662 454.27 46.1911ZM354.686 54.9244C354.686 54.3029 354.768 53.732 354.932 53.2116C355.098 52.6896 355.344 52.2074 355.67 51.7649H356.518C356.392 51.929 356.275 52.1303 356.165 52.369C356.056 52.6059 355.96 52.8661 355.879 53.1495C355.8 53.4312 355.737 53.7237 355.69 54.027C355.646 54.3303 355.623 54.6294 355.623 54.9244C355.623 55.3171 355.662 55.7148 355.74 56.1175C355.82 56.5202 355.926 56.8931 356.061 57.2362C356.197 57.5808 356.349 57.8626 356.518 58.0813H355.67C355.344 57.6388 355.098 57.1574 354.932 56.6371C354.768 56.1151 354.686 55.5442 354.686 54.9244ZM357.217 57V53.1818H358.117V57H357.217ZM357.67 52.6399C357.527 52.6399 357.405 52.5927 357.302 52.4982C357.199 52.4021 357.148 52.2869 357.148 52.1527C357.148 52.0168 357.199 51.9016 357.302 51.8072C357.405 51.7111 357.527 51.663 357.67 51.663C357.814 51.663 357.936 51.7111 358.038 51.8072C358.14 51.9016 358.192 52.0168 358.192 52.1527C358.192 52.2869 358.14 52.4021 358.038 52.4982C357.936 52.5927 357.814 52.6399 357.67 52.6399ZM359.942 54.7628V57H359.042V53.1818H359.903V53.8306H359.947C360.035 53.6168 360.175 53.447 360.367 53.321C360.561 53.1951 360.801 53.1321 361.086 53.1321C361.349 53.1321 361.579 53.1884 361.774 53.3011C361.972 53.4138 362.124 53.5771 362.232 53.7908C362.341 54.0046 362.395 54.264 362.393 54.5689V57H361.493V54.7081C361.493 54.4529 361.427 54.2532 361.295 54.109C361.164 53.9648 360.982 53.8928 360.75 53.8928C360.593 53.8928 360.453 53.9276 360.33 53.9972C360.209 54.0651 360.114 54.1637 360.044 54.293C359.976 54.4222 359.942 54.5788 359.942 54.7628ZM364.974 57.0746C364.592 57.0746 364.265 56.9909 363.992 56.8235C363.72 56.6561 363.51 56.425 363.363 56.13C363.217 55.8333 363.144 55.492 363.144 55.1058C363.144 54.718 363.219 54.3758 363.368 54.0792C363.517 53.7809 363.727 53.5489 363.999 53.3832C364.273 53.2158 364.596 53.1321 364.969 53.1321C365.278 53.1321 365.553 53.1893 365.791 53.3036C366.032 53.4163 366.223 53.5762 366.366 53.7834C366.508 53.9889 366.589 54.2292 366.609 54.5043H365.749C365.714 54.3203 365.631 54.167 365.501 54.0444C365.371 53.9201 365.198 53.858 364.981 53.858C364.797 53.858 364.635 53.9077 364.496 54.0071C364.357 54.1049 364.249 54.2457 364.171 54.4297C364.094 54.6136 364.056 54.834 364.056 55.0909C364.056 55.3511 364.094 55.5748 364.171 55.7621C364.247 55.9477 364.354 56.091 364.491 56.1921C364.631 56.2915 364.794 56.3413 364.981 56.3413C365.114 56.3413 365.232 56.3164 365.336 56.2667C365.443 56.2153 365.531 56.1416 365.602 56.0455C365.674 55.9493 365.723 55.8325 365.749 55.695H366.609C366.588 55.9651 366.508 56.2045 366.371 56.4134C366.233 56.6205 366.046 56.7829 365.809 56.9006C365.572 57.0166 365.293 57.0746 364.974 57.0746ZM368.248 51.9091V57H367.348V51.9091H368.248ZM369.728 57.0547C369.577 57.0547 369.448 57.0017 369.34 56.8956C369.232 56.7895 369.179 56.6603 369.181 56.5078C369.179 56.3587 369.232 56.2311 369.34 56.125C369.448 56.0189 369.577 55.9659 369.728 55.9659C369.873 55.9659 370 56.0189 370.108 56.125C370.217 56.2311 370.273 56.3587 370.275 56.5078C370.273 56.6089 370.246 56.7009 370.195 56.7837C370.145 56.8666 370.079 56.9329 369.996 56.9826C369.915 57.0307 369.825 57.0547 369.728 57.0547ZM374.548 57H372.822V51.9091H374.582C375.088 51.9091 375.522 52.011 375.885 52.2148C376.25 52.417 376.53 52.7079 376.725 53.0874C376.921 53.4669 377.018 53.9209 377.018 54.4496C377.018 54.9799 376.92 55.4356 376.723 55.8168C376.527 56.1979 376.245 56.4904 375.875 56.6942C375.507 56.8981 375.065 57 374.548 57ZM373.745 56.2021H374.503C374.857 56.2021 375.153 56.1374 375.39 56.0082C375.627 55.8772 375.805 55.6825 375.925 55.424C376.044 55.1638 376.104 54.839 376.104 54.4496C376.104 54.0601 376.044 53.737 375.925 53.4801C375.805 53.2216 375.629 53.0285 375.395 52.9009C375.163 52.7717 374.875 52.707 374.53 52.707H373.745V56.2021ZM377.855 57V53.1818H378.755V57H377.855ZM378.307 52.6399C378.165 52.6399 378.042 52.5927 377.939 52.4982C377.837 52.4021 377.785 52.2869 377.785 52.1527C377.785 52.0168 377.837 51.9016 377.939 51.8072C378.042 51.7111 378.165 51.663 378.307 51.663C378.452 51.663 378.574 51.7111 378.675 51.8072C378.778 51.9016 378.829 52.0168 378.829 52.1527C378.829 52.2869 378.778 52.4021 378.675 52.4982C378.574 52.5927 378.452 52.6399 378.307 52.6399ZM379.68 57V53.1818H380.54V53.8306H380.585C380.665 53.6119 380.796 53.4412 380.98 53.3185C381.164 53.1942 381.384 53.1321 381.639 53.1321C381.897 53.1321 382.115 53.1951 382.293 53.321C382.472 53.4453 382.598 53.6152 382.671 53.8306H382.71C382.795 53.6185 382.937 53.4495 383.138 53.3235C383.34 53.1959 383.58 53.1321 383.856 53.1321C384.208 53.1321 384.494 53.2431 384.716 53.4652C384.938 53.6873 385.049 54.0112 385.049 54.4371V57H384.147V54.5763C384.147 54.3394 384.084 54.1662 383.958 54.0568C383.832 53.9458 383.678 53.8903 383.496 53.8903C383.279 53.8903 383.109 53.9582 382.986 54.0941C382.865 54.2283 382.805 54.4032 382.805 54.6186V57H381.922V54.5391C381.922 54.3419 381.863 54.1844 381.743 54.0668C381.626 53.9491 381.472 53.8903 381.281 53.8903C381.152 53.8903 381.034 53.9234 380.928 53.9897C380.822 54.0543 380.737 54.1463 380.674 54.2656C380.611 54.3833 380.58 54.5208 380.58 54.6783V57H379.68ZM387.653 57.0746C387.27 57.0746 386.939 56.995 386.661 56.8359C386.384 56.6752 386.171 56.4482 386.022 56.1548C385.873 55.8598 385.798 55.5127 385.798 55.1133C385.798 54.7205 385.873 54.3758 386.022 54.0792C386.173 53.7809 386.383 53.5489 386.653 53.3832C386.924 53.2158 387.241 53.1321 387.605 53.1321C387.841 53.1321 388.063 53.1702 388.272 53.2464C388.482 53.321 388.668 53.437 388.828 53.5945C388.991 53.7519 389.118 53.9524 389.211 54.196C389.304 54.438 389.35 54.7263 389.35 55.0611V55.337H386.221V54.7305H388.488C388.486 54.5581 388.449 54.4048 388.376 54.2706C388.303 54.1347 388.201 54.0278 388.07 53.9499C387.941 53.872 387.79 53.8331 387.618 53.8331C387.434 53.8331 387.272 53.8778 387.133 53.9673C386.994 54.0552 386.885 54.1712 386.808 54.3153C386.731 54.4579 386.692 54.6145 386.691 54.7852V55.3146C386.691 55.5367 386.731 55.7273 386.812 55.8864C386.894 56.0438 387.007 56.1648 387.153 56.2493C387.299 56.3321 387.47 56.3736 387.665 56.3736C387.796 56.3736 387.915 56.3554 388.021 56.3189C388.127 56.2808 388.219 56.2253 388.297 56.1523C388.374 56.0794 388.433 55.9891 388.473 55.8814L389.313 55.9759C389.26 56.1979 389.159 56.3918 389.01 56.5575C388.862 56.7216 388.674 56.8492 388.443 56.9403C388.213 57.0298 387.949 57.0746 387.653 57.0746ZM391.012 54.7628V57H390.112V53.1818H390.972V53.8306H391.017C391.104 53.6168 391.244 53.447 391.437 53.321C391.631 53.1951 391.87 53.1321 392.155 53.1321C392.419 53.1321 392.648 53.1884 392.844 53.3011C393.041 53.4138 393.193 53.5771 393.301 53.7908C393.41 54.0046 393.464 54.264 393.463 54.5689V57H392.563V54.7081C392.563 54.4529 392.496 54.2532 392.364 54.109C392.233 53.9648 392.052 53.8928 391.82 53.8928C391.662 53.8928 391.522 53.9276 391.399 53.9972C391.278 54.0651 391.183 54.1637 391.114 54.293C391.046 54.4222 391.012 54.5788 391.012 54.7628ZM397.395 54.1911L396.575 54.2805C396.552 54.1977 396.511 54.1198 396.453 54.0469C396.397 53.974 396.32 53.9151 396.224 53.8704C396.128 53.8256 396.011 53.8033 395.871 53.8033C395.684 53.8033 395.527 53.8439 395.399 53.9251C395.273 54.0063 395.211 54.1115 395.213 54.2408C395.211 54.3518 395.252 54.4421 395.334 54.5117C395.419 54.5813 395.558 54.6385 395.752 54.6832L396.403 54.8224C396.765 54.9003 397.033 55.0238 397.209 55.1928C397.386 55.3619 397.476 55.5831 397.477 55.8565C397.476 56.0968 397.405 56.3089 397.266 56.4929C397.128 56.6752 396.937 56.8177 396.692 56.9205C396.446 57.0232 396.165 57.0746 395.847 57.0746C395.379 57.0746 395.003 56.9768 394.718 56.7812C394.433 56.584 394.263 56.3098 394.208 55.9585L395.086 55.8739C395.126 56.0463 395.21 56.1764 395.339 56.2642C395.469 56.352 395.637 56.396 395.844 56.396C396.058 56.396 396.229 56.352 396.359 56.2642C396.489 56.1764 396.555 56.0678 396.555 55.9386C396.555 55.8292 396.513 55.7389 396.428 55.6676C396.345 55.5964 396.216 55.5417 396.04 55.5036L395.389 55.3668C395.023 55.2906 394.752 55.1622 394.576 54.9815C394.401 54.7992 394.314 54.5689 394.315 54.2905C394.314 54.0552 394.377 53.8513 394.507 53.679C394.638 53.505 394.819 53.3707 395.051 53.2763C395.285 53.1802 395.554 53.1321 395.859 53.1321C396.306 53.1321 396.659 53.2274 396.915 53.418C397.174 53.6085 397.334 53.8662 397.395 54.1911ZM398.219 57V53.1818H399.119V57H398.219ZM398.672 52.6399C398.529 52.6399 398.406 52.5927 398.304 52.4982C398.201 52.4021 398.15 52.2869 398.15 52.1527C398.15 52.0168 398.201 51.9016 398.304 51.8072C398.406 51.7111 398.529 51.663 398.672 51.663C398.816 51.663 398.938 51.7111 399.04 51.8072C399.142 51.9016 399.194 52.0168 399.194 52.1527C399.194 52.2869 399.142 52.4021 399.04 52.4982C398.938 52.5927 398.816 52.6399 398.672 52.6399ZM401.71 57.0746C401.337 57.0746 401.014 56.9925 400.74 56.8285C400.467 56.6644 400.255 56.4349 400.104 56.1399C399.955 55.8449 399.88 55.5002 399.88 55.1058C399.88 54.7114 399.955 54.3659 400.104 54.0692C400.255 53.7726 400.467 53.5423 400.74 53.3782C401.014 53.2141 401.337 53.1321 401.71 53.1321C402.083 53.1321 402.406 53.2141 402.679 53.3782C402.953 53.5423 403.164 53.7726 403.313 54.0692C403.464 54.3659 403.539 54.7114 403.539 55.1058C403.539 55.5002 403.464 55.8449 403.313 56.1399C403.164 56.4349 402.953 56.6644 402.679 56.8285C402.406 56.9925 402.083 57.0746 401.71 57.0746ZM401.715 56.3537C401.917 56.3537 402.086 56.2982 402.222 56.1871C402.358 56.0745 402.459 55.9237 402.525 55.7347C402.593 55.5458 402.627 55.3353 402.627 55.1033C402.627 54.8697 402.593 54.6584 402.525 54.4695C402.459 54.2789 402.358 54.1272 402.222 54.0146C402.086 53.9019 401.917 53.8455 401.715 53.8455C401.508 53.8455 401.335 53.9019 401.198 54.0146C401.062 54.1272 400.96 54.2789 400.892 54.4695C400.826 54.6584 400.793 54.8697 400.793 55.1033C400.793 55.3353 400.826 55.5458 400.892 55.7347C400.96 55.9237 401.062 56.0745 401.198 56.1871C401.335 56.2982 401.508 56.3537 401.715 56.3537ZM405.203 54.7628V57H404.303V53.1818H405.163V53.8306H405.208C405.296 53.6168 405.436 53.447 405.628 53.321C405.822 53.1951 406.061 53.1321 406.347 53.1321C406.61 53.1321 406.84 53.1884 407.035 53.3011C407.232 53.4138 407.385 53.5771 407.492 53.7908C407.602 54.0046 407.656 54.264 407.654 54.5689V57H406.754V54.7081C406.754 54.4529 406.688 54.2532 406.555 54.109C406.424 53.9648 406.243 53.8928 406.011 53.8928C405.853 53.8928 405.713 53.9276 405.591 53.9972C405.47 54.0651 405.375 54.1637 405.305 54.293C405.237 54.4222 405.203 54.5788 405.203 54.7628ZM411.587 54.1911L410.766 54.2805C410.743 54.1977 410.702 54.1198 410.644 54.0469C410.588 53.974 410.512 53.9151 410.416 53.8704C410.32 53.8256 410.202 53.8033 410.063 53.8033C409.876 53.8033 409.718 53.8439 409.59 53.9251C409.465 54.0063 409.402 54.1115 409.404 54.2408C409.402 54.3518 409.443 54.4421 409.526 54.5117C409.61 54.5813 409.75 54.6385 409.943 54.6832L410.595 54.8224C410.956 54.9003 411.224 55.0238 411.4 55.1928C411.577 55.3619 411.667 55.5831 411.669 55.8565C411.667 56.0968 411.597 56.3089 411.457 56.4929C411.32 56.6752 411.128 56.8177 410.883 56.9205C410.638 57.0232 410.356 57.0746 410.038 57.0746C409.571 57.0746 409.194 56.9768 408.909 56.7812C408.624 56.584 408.454 56.3098 408.4 55.9585L409.277 55.8739C409.317 56.0463 409.402 56.1764 409.531 56.2642C409.66 56.352 409.828 56.396 410.035 56.396C410.249 56.396 410.421 56.352 410.55 56.2642C410.681 56.1764 410.746 56.0678 410.746 55.9386C410.746 55.8292 410.704 55.7389 410.62 55.6676C410.537 55.5964 410.407 55.5417 410.232 55.5036L409.581 55.3668C409.214 55.2906 408.943 55.1622 408.768 54.9815C408.592 54.7992 408.505 54.5689 408.507 54.2905C408.505 54.0552 408.569 53.8513 408.698 53.679C408.829 53.505 409.01 53.3707 409.242 53.2763C409.476 53.1802 409.745 53.1321 410.05 53.1321C410.498 53.1321 410.85 53.2274 411.107 53.418C411.365 53.6085 411.525 53.8662 411.587 54.1911ZM415.812 57.0746C415.44 57.0746 415.116 56.9925 414.843 56.8285C414.57 56.6644 414.357 56.4349 414.207 56.1399C414.057 55.8449 413.983 55.5002 413.983 55.1058C413.983 54.7114 414.057 54.3659 414.207 54.0692C414.357 53.7726 414.57 53.5423 414.843 53.3782C415.116 53.2141 415.44 53.1321 415.812 53.1321C416.185 53.1321 416.508 53.2141 416.782 53.3782C417.055 53.5423 417.267 53.7726 417.416 54.0692C417.567 54.3659 417.642 54.7114 417.642 55.1058C417.642 55.5002 417.567 55.8449 417.416 56.1399C417.267 56.4349 417.055 56.6644 416.782 56.8285C416.508 56.9925 416.185 57.0746 415.812 57.0746ZM415.817 56.3537C416.02 56.3537 416.189 56.2982 416.324 56.1871C416.46 56.0745 416.561 55.9237 416.628 55.7347C416.696 55.5458 416.73 55.3353 416.73 55.1033C416.73 54.8697 416.696 54.6584 416.628 54.4695C416.561 54.2789 416.46 54.1272 416.324 54.0146C416.189 53.9019 416.02 53.8455 415.817 53.8455C415.61 53.8455 415.438 53.9019 415.3 54.0146C415.164 54.1272 415.063 54.2789 414.995 54.4695C414.928 54.6584 414.895 54.8697 414.895 55.1033C414.895 55.3353 414.928 55.5458 414.995 55.7347C415.063 55.9237 415.164 56.0745 415.3 56.1871C415.438 56.2982 415.61 56.3537 415.817 56.3537ZM418.406 57V53.1818H419.278V53.8182H419.318C419.388 53.5978 419.507 53.4279 419.676 53.3086C419.847 53.1876 420.041 53.1271 420.26 53.1271C420.31 53.1271 420.365 53.1296 420.427 53.1346C420.49 53.1379 420.542 53.1437 420.583 53.152V53.9798C420.545 53.9665 420.485 53.9549 420.402 53.945C420.321 53.9334 420.242 53.9276 420.166 53.9276C420.002 53.9276 419.854 53.9632 419.723 54.0344C419.594 54.104 419.492 54.201 419.417 54.3253C419.343 54.4496 419.306 54.5929 419.306 54.7553V57H418.406ZM423.638 51.9091L424.963 55.9162H425.015L426.338 51.9091H427.352L425.557 57H424.419L422.627 51.9091H423.638ZM429.238 57.0746C428.865 57.0746 428.542 56.9925 428.269 56.8285C427.995 56.6644 427.783 56.4349 427.632 56.1399C427.483 55.8449 427.409 55.5002 427.409 55.1058C427.409 54.7114 427.483 54.3659 427.632 54.0692C427.783 53.7726 427.995 53.5423 428.269 53.3782C428.542 53.2141 428.865 53.1321 429.238 53.1321C429.611 53.1321 429.934 53.2141 430.208 53.3782C430.481 53.5423 430.692 53.7726 430.842 54.0692C430.992 54.3659 431.068 54.7114 431.068 55.1058C431.068 55.5002 430.992 55.8449 430.842 56.1399C430.692 56.4349 430.481 56.6644 430.208 56.8285C429.934 56.9925 429.611 57.0746 429.238 57.0746ZM429.243 56.3537C429.445 56.3537 429.614 56.2982 429.75 56.1871C429.886 56.0745 429.987 55.9237 430.054 55.7347C430.121 55.5458 430.155 55.3353 430.155 55.1033C430.155 54.8697 430.121 54.6584 430.054 54.4695C429.987 54.2789 429.886 54.1272 429.75 54.0146C429.614 53.9019 429.445 53.8455 429.243 53.8455C429.036 53.8455 428.864 53.9019 428.726 54.0146C428.59 54.1272 428.488 54.2789 428.42 54.4695C428.354 54.6584 428.321 54.8697 428.321 55.1033C428.321 55.3353 428.354 55.5458 428.42 55.7347C428.488 55.9237 428.59 56.0745 428.726 56.1871C428.864 56.2982 429.036 56.3537 429.243 56.3537ZM432.731 51.9091V57H431.831V51.9091H432.731ZM436.09 55.3942V53.1818H436.99V57H436.118V56.3214H436.078C435.992 56.5352 435.85 56.71 435.653 56.8459C435.457 56.9818 435.216 57.0497 434.929 57.0497C434.679 57.0497 434.458 56.9942 434.266 56.8832C434.075 56.7705 433.926 56.6072 433.818 56.3935C433.711 56.178 433.657 55.9179 433.657 55.6129V53.1818H434.557V55.4737C434.557 55.7157 434.623 55.9079 434.755 56.0504C434.888 56.1929 435.062 56.2642 435.277 56.2642C435.41 56.2642 435.538 56.2319 435.663 56.1673C435.787 56.1026 435.889 56.0065 435.968 55.8789C436.05 55.7496 436.09 55.5881 436.09 55.3942ZM437.915 57V53.1818H438.776V53.8306H438.82C438.9 53.6119 439.032 53.4412 439.216 53.3185C439.4 53.1942 439.619 53.1321 439.874 53.1321C440.133 53.1321 440.351 53.1951 440.528 53.321C440.707 53.4453 440.833 53.6152 440.906 53.8306H440.946C441.03 53.6185 441.173 53.4495 441.373 53.3235C441.575 53.1959 441.815 53.1321 442.092 53.1321C442.443 53.1321 442.73 53.2431 442.952 53.4652C443.174 53.6873 443.285 54.0112 443.285 54.4371V57H442.382V54.5763C442.382 54.3394 442.319 54.1662 442.194 54.0568C442.068 53.9458 441.913 53.8903 441.731 53.8903C441.514 53.8903 441.344 53.9582 441.222 54.0941C441.101 54.2283 441.04 54.4032 441.04 54.6186V57H440.158V54.5391C440.158 54.3419 440.098 54.1844 439.979 54.0668C439.861 53.9491 439.707 53.8903 439.516 53.8903C439.387 53.8903 439.269 53.9234 439.163 53.9897C439.057 54.0543 438.973 54.1463 438.91 54.2656C438.847 54.3833 438.815 54.5208 438.815 54.6783V57H437.915ZM445.888 57.0746C445.505 57.0746 445.175 56.995 444.896 56.8359C444.619 56.6752 444.407 56.4482 444.257 56.1548C444.108 55.8598 444.034 55.5127 444.034 55.1133C444.034 54.7205 444.108 54.3758 444.257 54.0792C444.408 53.7809 444.619 53.5489 444.889 53.3832C445.159 53.2158 445.476 53.1321 445.841 53.1321C446.076 53.1321 446.298 53.1702 446.507 53.2464C446.717 53.321 446.903 53.437 447.064 53.5945C447.226 53.7519 447.354 53.9524 447.447 54.196C447.539 54.438 447.586 54.7263 447.586 55.0611V55.337H444.456V54.7305H446.723C446.722 54.5581 446.684 54.4048 446.611 54.2706C446.539 54.1347 446.437 54.0278 446.306 53.9499C446.176 53.872 446.026 53.8331 445.853 53.8331C445.669 53.8331 445.508 53.8778 445.369 53.9673C445.229 54.0552 445.121 54.1712 445.043 54.3153C444.967 54.4579 444.928 54.6145 444.926 54.7852V55.3146C444.926 55.5367 444.967 55.7273 445.048 55.8864C445.129 56.0438 445.243 56.1648 445.388 56.2493C445.534 56.3321 445.705 56.3736 445.9 56.3736C446.031 56.3736 446.15 56.3554 446.256 56.3189C446.362 56.2808 446.454 56.2253 446.532 56.1523C446.61 56.0794 446.669 55.9891 446.708 55.8814L447.549 55.9759C447.496 56.1979 447.394 56.3918 447.245 56.5575C447.098 56.7216 446.909 56.8492 446.679 56.9403C446.448 57.0298 446.185 57.0746 445.888 57.0746ZM449.953 54.9244C449.953 55.5442 449.87 56.1151 449.704 56.6371C449.54 57.1574 449.295 57.6388 448.969 58.0813H448.121C448.249 57.9173 448.366 57.7167 448.474 57.4798C448.583 57.2428 448.678 56.9826 448.757 56.6992C448.838 56.4158 448.901 56.1225 448.946 55.8192C448.993 55.516 449.016 55.2177 449.016 54.9244C449.016 54.5316 448.976 54.1339 448.896 53.7312C448.819 53.3285 448.712 52.9548 448.576 52.6101C448.442 52.2654 448.29 51.9837 448.121 51.7649H448.969C449.295 52.2074 449.54 52.6896 449.704 53.2116C449.87 53.732 449.953 54.3029 449.953 54.9244Z" fill="black"/>
<path d="M255.278 48.6822V47.9091H259.34V48.6822H257.767V53H256.852V48.6822H255.278ZM261.195 53.0746C260.822 53.0746 260.499 52.9925 260.226 52.8285C259.952 52.6644 259.74 52.4349 259.589 52.1399C259.44 51.8449 259.366 51.5002 259.366 51.1058C259.366 50.7114 259.44 50.3659 259.589 50.0692C259.74 49.7726 259.952 49.5423 260.226 49.3782C260.499 49.2141 260.822 49.1321 261.195 49.1321C261.568 49.1321 261.891 49.2141 262.165 49.3782C262.438 49.5423 262.649 49.7726 262.799 50.0692C262.949 50.3659 263.025 50.7114 263.025 51.1058C263.025 51.5002 262.949 51.8449 262.799 52.1399C262.649 52.4349 262.438 52.6644 262.165 52.8285C261.891 52.9925 261.568 53.0746 261.195 53.0746ZM261.2 52.3537C261.402 52.3537 261.571 52.2982 261.707 52.1871C261.843 52.0745 261.944 51.9237 262.011 51.7347C262.079 51.5458 262.112 51.3353 262.112 51.1033C262.112 50.8697 262.079 50.6584 262.011 50.4695C261.944 50.2789 261.843 50.1272 261.707 50.0146C261.571 49.9019 261.402 49.8455 261.2 49.8455C260.993 49.8455 260.821 49.9019 260.683 50.0146C260.547 50.1272 260.445 50.2789 260.377 50.4695C260.311 50.6584 260.278 50.8697 260.278 51.1033C260.278 51.3353 260.311 51.5458 260.377 51.7347C260.445 51.9237 260.547 52.0745 260.683 52.1871C260.821 52.2982 260.993 52.3537 261.2 52.3537ZM265.695 49.1818V49.8778H263.5V49.1818H265.695ZM264.042 48.267H264.942V51.8516C264.942 51.9725 264.96 52.0653 264.997 52.13C265.035 52.1929 265.084 52.236 265.146 52.2592C265.207 52.2824 265.275 52.294 265.35 52.294C265.406 52.294 265.457 52.2899 265.504 52.2816C265.552 52.2733 265.588 52.2659 265.613 52.2592L265.765 52.9627C265.717 52.9793 265.648 52.9975 265.558 53.0174C265.471 53.0373 265.363 53.0489 265.235 53.0522C265.01 53.0588 264.807 53.0249 264.626 52.9503C264.446 52.8741 264.302 52.7564 264.196 52.5973C264.092 52.4382 264.04 52.2393 264.042 52.0007V48.267ZM267.546 53.0771C267.304 53.0771 267.087 53.034 266.893 52.9478C266.7 52.86 266.548 52.7307 266.435 52.56C266.324 52.3893 266.269 52.1789 266.269 51.9286C266.269 51.7132 266.309 51.535 266.388 51.3942C266.468 51.2533 266.576 51.1406 266.714 51.0561C266.851 50.9716 267.006 50.9078 267.179 50.8647C267.353 50.82 267.532 50.7876 267.718 50.7678C267.942 50.7446 268.123 50.7238 268.262 50.7056C268.402 50.6857 268.503 50.6559 268.566 50.6161C268.63 50.5747 268.663 50.5109 268.663 50.4247V50.4098C268.663 50.2225 268.607 50.0775 268.496 49.9748C268.385 49.872 268.225 49.8207 268.016 49.8207C267.796 49.8207 267.621 49.8687 267.492 49.9648C267.364 50.061 267.278 50.1745 267.233 50.3054L266.393 50.1861C266.459 49.9541 266.569 49.7602 266.721 49.6044C266.874 49.447 267.06 49.3293 267.28 49.2514C267.501 49.1719 267.744 49.1321 268.011 49.1321C268.195 49.1321 268.378 49.1536 268.561 49.1967C268.743 49.2398 268.909 49.3111 269.06 49.4105C269.211 49.5083 269.332 49.6417 269.423 49.8107C269.516 49.9798 269.562 50.1911 269.562 50.4446V53H268.697V52.4755H268.668C268.613 52.5816 268.536 52.681 268.436 52.7738C268.339 52.8649 268.215 52.9387 268.066 52.995C267.918 53.0497 267.745 53.0771 267.546 53.0771ZM267.78 52.4158C267.961 52.4158 268.117 52.3802 268.25 52.3089C268.382 52.236 268.484 52.1399 268.556 52.0206C268.629 51.9013 268.665 51.7712 268.665 51.6303V51.1804C268.637 51.2036 268.589 51.2251 268.521 51.245C268.455 51.2649 268.38 51.2823 268.297 51.2972C268.214 51.3121 268.132 51.3254 268.051 51.337C267.97 51.3486 267.899 51.3585 267.84 51.3668C267.706 51.3851 267.585 51.4149 267.479 51.4563C267.373 51.4978 267.29 51.5558 267.228 51.6303C267.167 51.7032 267.136 51.7977 267.136 51.9137C267.136 52.0794 267.197 52.2045 267.318 52.2891C267.439 52.3736 267.593 52.4158 267.78 52.4158ZM271.367 47.9091V53H270.467V47.9091H271.367Z" fill="black"/>
<path d="M49.9126 43.5348C49.8712 43.4006 49.814 43.2804 49.7411 43.1744C49.6699 43.0666 49.5837 42.9747 49.4826 42.8984C49.3832 42.8222 49.2688 42.765 49.1396 42.7269C49.0103 42.6871 48.8694 42.6673 48.717 42.6673C48.4435 42.6673 48.1999 42.736 47.9862 42.8736C47.7724 43.0111 47.6042 43.2133 47.4815 43.4801C47.3606 43.7453 47.3001 44.0684 47.3001 44.4496C47.3001 44.834 47.3606 45.1597 47.4815 45.4265C47.6025 45.6933 47.7707 45.8963 47.9862 46.0355C48.2016 46.1731 48.4518 46.2418 48.7369 46.2418C48.9954 46.2418 49.2191 46.1921 49.408 46.0927C49.5986 45.9933 49.7453 45.8524 49.848 45.6701C49.9508 45.4862 50.0021 45.2707 50.0021 45.0238L50.2109 45.0561H48.8288V44.3352H50.8945V44.9467C50.8945 45.3826 50.8017 45.7596 50.6161 46.0778C50.4305 46.396 50.1753 46.6412 49.8505 46.8136C49.5257 46.9843 49.1528 47.0696 48.7319 47.0696C48.2629 47.0696 47.8511 46.9644 47.4964 46.7539C47.1435 46.5418 46.8675 46.241 46.6687 45.8516C46.4715 45.4605 46.3729 44.9964 46.3729 44.4595C46.3729 44.0485 46.4309 43.6815 46.5469 43.3583C46.6645 43.0352 46.8286 42.7609 47.0391 42.5355C47.2495 42.3085 47.4964 42.1361 47.7798 42.0185C48.0632 41.8991 48.3714 41.8395 48.7045 41.8395C48.9863 41.8395 49.2489 41.8809 49.4925 41.9638C49.7362 42.045 49.9524 42.161 50.1413 42.3118C50.3319 42.4626 50.4885 42.6416 50.6112 42.8487C50.7338 43.0559 50.8142 43.2846 50.8523 43.5348H49.9126ZM51.7465 47V43.1818H52.6191V43.8182H52.6588C52.7284 43.5978 52.8477 43.4279 53.0168 43.3086C53.1875 43.1876 53.3822 43.1271 53.6009 43.1271C53.6507 43.1271 53.7062 43.1296 53.7675 43.1346C53.8305 43.1379 53.8827 43.1437 53.9241 43.152V43.9798C53.886 43.9665 53.8255 43.9549 53.7426 43.945C53.6614 43.9334 53.5827 43.9276 53.5065 43.9276C53.3424 43.9276 53.1949 43.9632 53.064 44.0344C52.9347 44.104 52.8328 44.201 52.7583 44.3253C52.6837 44.4496 52.6464 44.5929 52.6464 44.7553V47H51.7465ZM56.0302 47.0746C55.6573 47.0746 55.3342 46.9925 55.0607 46.8285C54.7873 46.6644 54.5752 46.4349 54.4244 46.1399C54.2752 45.8449 54.2006 45.5002 54.2006 45.1058C54.2006 44.7114 54.2752 44.3659 54.4244 44.0692C54.5752 43.7726 54.7873 43.5423 55.0607 43.3782C55.3342 43.2141 55.6573 43.1321 56.0302 43.1321C56.4031 43.1321 56.7262 43.2141 56.9996 43.3782C57.2731 43.5423 57.4844 43.7726 57.6335 44.0692C57.7843 44.3659 57.8597 44.7114 57.8597 45.1058C57.8597 45.5002 57.7843 45.8449 57.6335 46.1399C57.4844 46.4349 57.2731 46.6644 56.9996 46.8285C56.7262 46.9925 56.4031 47.0746 56.0302 47.0746ZM56.0352 46.3537C56.2373 46.3537 56.4064 46.2982 56.5423 46.1871C56.6781 46.0745 56.7792 45.9237 56.8455 45.7347C56.9135 45.5458 56.9474 45.3353 56.9474 45.1033C56.9474 44.8697 56.9135 44.6584 56.8455 44.4695C56.7792 44.2789 56.6781 44.1272 56.5423 44.0146C56.4064 43.9019 56.2373 43.8455 56.0352 43.8455C55.828 43.8455 55.6557 43.9019 55.5181 44.0146C55.3822 44.1272 55.2803 44.2789 55.2124 44.4695C55.1461 44.6584 55.1129 44.8697 55.1129 45.1033C55.1129 45.3353 55.1461 45.5458 55.2124 45.7347C55.2803 45.9237 55.3822 46.0745 55.5181 46.1871C55.6557 46.2982 55.828 46.3537 56.0352 46.3537ZM61.6412 44.1911L60.8209 44.2805C60.7977 44.1977 60.7571 44.1198 60.6991 44.0469C60.6428 43.974 60.5666 43.9151 60.4704 43.8704C60.3743 43.8256 60.2567 43.8033 60.1175 43.8033C59.9302 43.8033 59.7728 43.8439 59.6452 43.9251C59.5192 44.0063 59.4571 44.1115 59.4587 44.2408C59.4571 44.3518 59.4977 44.4421 59.5805 44.5117C59.665 44.5813 59.8042 44.6385 59.9981 44.6832L60.6494 44.8224C61.0107 44.9003 61.2791 45.0238 61.4548 45.1928C61.6321 45.3619 61.7216 45.5831 61.7233 45.8565C61.7216 46.0968 61.6512 46.3089 61.512 46.4929C61.3744 46.6752 61.183 46.8177 60.9378 46.9205C60.6925 47.0232 60.4108 47.0746 60.0926 47.0746C59.6253 47.0746 59.2491 46.9768 58.964 46.7812C58.679 46.584 58.5091 46.3098 58.4545 45.9585L59.3319 45.8739C59.3717 46.0463 59.4562 46.1764 59.5855 46.2642C59.7148 46.352 59.883 46.396 60.0901 46.396C60.3039 46.396 60.4754 46.352 60.6047 46.2642C60.7356 46.1764 60.801 46.0678 60.801 45.9386C60.801 45.8292 60.7588 45.7389 60.6743 45.6676C60.5914 45.5964 60.4622 45.5417 60.2865 45.5036L59.6352 45.3668C59.269 45.2906 58.998 45.1622 58.8224 44.9815C58.6467 44.7992 58.5597 44.5689 58.5613 44.2905C58.5597 44.0552 58.6235 43.8513 58.7528 43.679C58.8837 43.505 59.0651 43.3707 59.2971 43.2763C59.5308 43.1802 59.8001 43.1321 60.105 43.1321C60.5525 43.1321 60.9046 43.2274 61.1615 43.418C61.42 43.6085 61.5799 43.8662 61.6412 44.1911ZM65.483 44.1911L64.6627 44.2805C64.6395 44.1977 64.5989 44.1198 64.5409 44.0469C64.4846 43.974 64.4084 43.9151 64.3122 43.8704C64.2161 43.8256 64.0985 43.8033 63.9593 43.8033C63.772 43.8033 63.6146 43.8439 63.4869 43.9251C63.361 44.0063 63.2989 44.1115 63.3005 44.2408C63.2989 44.3518 63.3395 44.4421 63.4223 44.5117C63.5068 44.5813 63.646 44.6385 63.8399 44.6832L64.4912 44.8224C64.8525 44.9003 65.1209 45.0238 65.2966 45.1928C65.4739 45.3619 65.5634 45.5831 65.5651 45.8565C65.5634 46.0968 65.493 46.3089 65.3538 46.4929C65.2162 46.6752 65.0248 46.8177 64.7796 46.9205C64.5343 47.0232 64.2526 47.0746 63.9344 47.0746C63.4671 47.0746 63.0909 46.9768 62.8058 46.7812C62.5208 46.584 62.3509 46.3098 62.2963 45.9585L63.1737 45.8739C63.2135 46.0463 63.298 46.1764 63.4273 46.2642C63.5566 46.352 63.7248 46.396 63.9319 46.396C64.1457 46.396 64.3172 46.352 64.4465 46.2642C64.5774 46.1764 64.6428 46.0678 64.6428 45.9386C64.6428 45.8292 64.6006 45.7389 64.5161 45.6676C64.4332 45.5964 64.3039 45.5417 64.1283 45.5036L63.477 45.3668C63.1108 45.2906 62.8398 45.1622 62.6642 44.9815C62.4885 44.7992 62.4015 44.5689 62.4031 44.2905C62.4015 44.0552 62.4653 43.8513 62.5945 43.679C62.7255 43.505 62.9069 43.3707 63.1389 43.2763C63.3726 43.1802 63.6419 43.1321 63.9468 43.1321C64.3943 43.1321 64.7464 43.2274 65.0033 43.418C65.2618 43.6085 65.4217 43.8662 65.483 44.1911ZM47.5735 55L46.1367 49.9091H47.1286L48.0458 53.6502H48.093L49.0724 49.9091H49.9748L50.9567 53.6527H51.0014L51.9187 49.9091H52.9105L51.4737 55H50.5639L49.5447 51.4279H49.505L48.4833 55H47.5735ZM54.8109 55.0746C54.4281 55.0746 54.0975 54.995 53.8191 54.8359C53.5423 54.6752 53.3294 54.4482 53.1802 54.1548C53.0311 53.8598 52.9565 53.5127 52.9565 53.1133C52.9565 52.7205 53.0311 52.3758 53.1802 52.0792C53.331 51.7809 53.5415 51.5489 53.8116 51.3832C54.0817 51.2158 54.3991 51.1321 54.7637 51.1321C54.999 51.1321 55.2211 51.1702 55.4299 51.2464C55.6403 51.321 55.8259 51.437 55.9867 51.5945C56.1491 51.7519 56.2767 51.9524 56.3695 52.196C56.4623 52.438 56.5087 52.7263 56.5087 53.0611V53.337H53.3791V52.7305H55.6461C55.6445 52.5581 55.6072 52.4048 55.5343 52.2706C55.4614 52.1347 55.3594 52.0278 55.2285 51.9499C55.0993 51.872 54.9484 51.8331 54.7761 51.8331C54.5922 51.8331 54.4306 51.8778 54.2914 51.9673C54.1522 52.0552 54.0436 52.1712 53.9657 52.3153C53.8895 52.4579 53.8506 52.6145 53.8489 52.7852V53.3146C53.8489 53.5367 53.8895 53.7273 53.9707 53.8864C54.0519 54.0438 54.1654 54.1648 54.3113 54.2493C54.4571 54.3321 54.6278 54.3736 54.8233 54.3736C54.9542 54.3736 55.0727 54.3554 55.1788 54.3189C55.2849 54.2808 55.3768 54.2253 55.4547 54.1523C55.5326 54.0794 55.5914 53.9891 55.6312 53.8814L56.4714 53.9759C56.4184 54.1979 56.3173 54.3918 56.1681 54.5575C56.0207 54.7216 55.8317 54.8492 55.6014 54.9403C55.371 55.0298 55.1075 55.0746 54.8109 55.0746ZM57.27 55V51.1818H58.1698V55H57.27ZM57.7224 50.6399C57.5799 50.6399 57.4572 50.5927 57.3545 50.4982C57.2517 50.4021 57.2004 50.2869 57.2004 50.1527C57.2004 50.0168 57.2517 49.9016 57.3545 49.8072C57.4572 49.7111 57.5799 49.663 57.7224 49.663C57.8666 49.663 57.9892 49.7111 58.0903 49.8072C58.193 49.9016 58.2444 50.0168 58.2444 50.1527C58.2444 50.2869 58.193 50.4021 58.0903 50.4982C57.9892 50.5927 57.8666 50.6399 57.7224 50.6399ZM60.7557 56.5114C60.4325 56.5114 60.1549 56.4674 59.9229 56.3796C59.6909 56.2934 59.5045 56.1774 59.3636 56.0316C59.2228 55.8858 59.125 55.7242 59.0703 55.5469L59.8807 55.3505C59.9171 55.4251 59.9702 55.4988 60.0398 55.5717C60.1094 55.6463 60.203 55.7076 60.3207 55.7557C60.44 55.8054 60.59 55.8303 60.7706 55.8303C61.0258 55.8303 61.2371 55.7681 61.4045 55.6438C61.5719 55.5212 61.6555 55.319 61.6555 55.0373V54.3139H61.6108C61.5644 54.4067 61.4964 54.502 61.407 54.5998C61.3191 54.6976 61.2023 54.7796 61.0565 54.8459C60.9123 54.9122 60.7308 54.9453 60.5121 54.9453C60.2188 54.9453 59.9528 54.8765 59.7141 54.739C59.4772 54.5998 59.2882 54.3926 59.1474 54.1175C59.0082 53.8408 58.9386 53.4944 58.9386 53.0785C58.9386 52.6592 59.0082 52.3054 59.1474 52.017C59.2882 51.727 59.478 51.5075 59.7166 51.3583C59.9553 51.2075 60.2212 51.1321 60.5146 51.1321C60.7383 51.1321 60.9222 51.1702 61.0664 51.2464C61.2122 51.321 61.3282 51.4113 61.4144 51.5174C61.5006 51.6218 61.5661 51.7204 61.6108 51.8132H61.6605V51.1818H62.5479V55.0621C62.5479 55.3886 62.4701 55.6587 62.3143 55.8725C62.1585 56.0863 61.9455 56.2462 61.6754 56.3523C61.4053 56.4583 61.0987 56.5114 60.7557 56.5114ZM60.7631 54.2393C60.9537 54.2393 61.1161 54.1929 61.2504 54.1001C61.3846 54.0073 61.4865 53.8739 61.5561 53.6999C61.6257 53.5259 61.6605 53.3171 61.6605 53.0735C61.6605 52.8332 61.6257 52.6228 61.5561 52.4421C61.4882 52.2615 61.3871 52.1214 61.2528 52.022C61.1203 51.9209 60.957 51.8704 60.7631 51.8704C60.5626 51.8704 60.3952 51.9226 60.261 52.027C60.1268 52.1314 60.0257 52.2747 59.9577 52.457C59.8898 52.6377 59.8558 52.8432 59.8558 53.0735C59.8558 53.3072 59.8898 53.5118 59.9577 53.6875C60.0273 53.8615 60.1293 53.9974 60.2635 54.0952C60.3994 54.1913 60.5659 54.2393 60.7631 54.2393ZM64.37 52.7628V55H63.4702V49.9091H64.3501V51.8306H64.3949C64.4844 51.6152 64.6228 51.4453 64.81 51.321C64.9989 51.1951 65.2392 51.1321 65.5309 51.1321C65.796 51.1321 66.0272 51.1876 66.2244 51.2987C66.4216 51.4097 66.5741 51.5721 66.6818 51.7859C66.7912 51.9996 66.8459 52.2607 66.8459 52.5689V55H65.946V52.7081C65.946 52.4512 65.8797 52.2515 65.7472 52.109C65.6162 51.9648 65.4323 51.8928 65.1953 51.8928C65.0362 51.8928 64.8937 51.9276 64.7678 51.9972C64.6435 52.0651 64.5457 52.1637 64.4744 52.293C64.4048 52.4222 64.37 52.5788 64.37 52.7628ZM69.6697 51.1818V51.8778H67.4748V51.1818H69.6697ZM68.0167 50.267H68.9165V53.8516C68.9165 53.9725 68.9348 54.0653 68.9712 54.13C69.0094 54.1929 69.0591 54.236 69.1204 54.2592C69.1817 54.2824 69.2496 54.294 69.3242 54.294C69.3806 54.294 69.4319 54.2899 69.4783 54.2816C69.5264 54.2733 69.5629 54.2659 69.5877 54.2592L69.7393 54.9627C69.6913 54.9793 69.6225 54.9975 69.533 55.0174C69.4452 55.0373 69.3375 55.0489 69.2099 55.0522C68.9845 55.0588 68.7815 55.0249 68.6009 54.9503C68.4202 54.8741 68.2769 54.7564 68.1708 54.5973C68.0664 54.4382 68.015 54.2393 68.0167 54.0007V50.267Z" fill="black"/>
</svg>
